<?xml version="1.0" encoding="UTF-8"?>
<!DOCTYPE svg PUBLIC "-//W3C//DTD SVG 1.1//EN" "http://www.w3.org/Graphics/SVG/1.1/DTD/svg11.dtd">
<svg xmlns="http://www.w3.org/2000/svg" version="1.1" width="744px" height="560px" style="shape-rendering:geometricPrecision; text-rendering:geometricPrecision; image-rendering:optimizeQuality; fill-rule:evenodd; clip-rule:evenodd" xmlns:xlink="http://www.w3.org/1999/xlink">
<g><path style="opacity:0.314" fill="#9f957b" d="M 326.5,30.5 C 330.856,31.5107 334.856,33.3441 338.5,36C 343.208,39.704 347.541,43.8707 351.5,48.5C 343.414,42.4049 335.081,36.7382 326.5,31.5C 326.5,31.1667 326.5,30.8333 326.5,30.5 Z"/></g>
<g><path style="opacity:1" fill="#e6a051" d="M 322.5,31.5 C 323.167,32.1667 323.833,32.8333 324.5,33.5C 322.314,33.5106 321.481,34.5106 322,36.5C 324.398,37.8563 326.898,39.0229 329.5,40C 330.64,41.9734 331.973,43.8067 333.5,45.5C 339.832,50.0047 345.665,55.0047 351,60.5C 351.987,65.4778 353.82,70.1444 356.5,74.5C 362.228,79.075 367.728,83.7417 373,88.5C 372.865,86.5753 372.698,84.5753 372.5,82.5C 372.833,82.5 373.167,82.5 373.5,82.5C 374.449,85.2075 374.449,87.8742 373.5,90.5C 369.444,88.3711 365.111,87.0377 360.5,86.5C 360.188,81.5449 358.021,77.5449 354,74.5C 352.54,72.028 351.54,69.3613 351,66.5C 348.307,66.0474 346.473,64.5474 345.5,62C 343.866,61.5065 342.199,61.3398 340.5,61.5C 340.843,63.4832 340.176,64.8166 338.5,65.5C 337.183,65.821 335.849,66.1543 334.5,66.5C 333.01,65.1603 331.344,64.1603 329.5,63.5C 328.164,61.9897 326.997,60.3231 326,58.5C 325.184,57.1772 324.017,56.5106 322.5,56.5C 322.617,54.5165 321.95,52.8498 320.5,51.5C 317.833,50.1667 315.167,50.1667 312.5,51.5C 312.959,55.8419 312.459,60.1752 311,64.5C 310.503,62.1902 310.337,59.8568 310.5,57.5C 311.118,48.1096 314.118,39.6096 319.5,32C 320.448,31.5172 321.448,31.3505 322.5,31.5 Z"/></g>
<g><path style="opacity:1" fill="#b87739" d="M 322.5,31.5 C 323.833,31.5 325.167,31.5 326.5,31.5C 335.081,36.7382 343.414,42.4049 351.5,48.5C 352.13,52.463 354.463,54.7963 358.5,55.5C 359.571,59.9764 361.904,63.6431 365.5,66.5C 367.227,70.9482 369.727,74.9482 373,78.5C 373.49,79.7932 373.657,81.1266 373.5,82.5C 373.167,82.5 372.833,82.5 372.5,82.5C 362.204,65.699 349.537,50.8657 334.5,38C 331.52,35.676 328.187,34.176 324.5,33.5C 323.833,32.8333 323.167,32.1667 322.5,31.5 Z"/></g>
<g><path style="opacity:0.275" fill="#b0a086" d="M 351.5,48.5 C 354.167,50.5 356.5,52.8333 358.5,55.5C 354.463,54.7963 352.13,52.463 351.5,48.5 Z"/></g>
<g><path style="opacity:1" fill="#f0bc89" d="M 322.5,56.5 C 322.557,57.609 322.89,58.609 323.5,59.5C 323.657,60.8734 323.49,62.2068 323,63.5C 322.617,62.944 322.117,62.6107 321.5,62.5C 321.833,59.5 320.5,58.1667 317.5,58.5C 317.657,59.8734 317.49,61.2068 317,62.5C 313.212,66.7066 311.712,71.7066 312.5,77.5C 311.2,79.223 310.533,81.3897 310.5,84C 311.53,92.6816 313.53,101.182 316.5,109.5C 315.172,114.197 315.172,118.864 316.5,123.5C 315.235,122.486 314.569,120.986 314.5,119C 313.016,107.757 311.349,96.5902 309.5,85.5C 309.173,75.985 309.506,66.6517 310.5,57.5C 310.337,59.8568 310.503,62.1902 311,64.5C 312.459,60.1752 312.959,55.8419 312.5,51.5C 315.167,50.1667 317.833,50.1667 320.5,51.5C 321.95,52.8498 322.617,54.5165 322.5,56.5 Z"/></g>
<g><path style="opacity:0.094" fill="#ada78e" d="M 358.5,55.5 C 361.221,58.894 363.554,62.5606 365.5,66.5C 361.904,63.6431 359.571,59.9764 358.5,55.5 Z"/></g>
<g><path style="opacity:0.984" fill="#9f774c" d="M 326.5,30.5 C 326.5,30.8333 326.5,31.1667 326.5,31.5C 325.167,31.5 323.833,31.5 322.5,31.5C 321.448,31.3505 320.448,31.5172 319.5,32C 314.118,39.6096 311.118,48.1096 310.5,57.5C 309.506,66.6517 309.173,75.985 309.5,85.5C 308.515,89.6344 308.182,93.9677 308.5,98.5C 307.339,84.6728 307.173,70.6728 308,56.5C 308.613,51.101 310.28,46.101 313,41.5C 313.497,39.1902 313.663,36.8568 313.5,34.5C 313.511,32.9826 314.177,31.8159 315.5,31C 319.152,30.5014 322.818,30.3347 326.5,30.5 Z"/></g>
<g><path style="opacity:1" fill="#fabb63" d="M 324.5,33.5 C 328.187,34.176 331.52,35.676 334.5,38C 349.537,50.8657 362.204,65.699 372.5,82.5C 372.698,84.5753 372.865,86.5753 373,88.5C 367.728,83.7417 362.228,79.075 356.5,74.5C 353.82,70.1444 351.987,65.4778 351,60.5C 345.665,55.0047 339.832,50.0047 333.5,45.5C 331.973,43.8067 330.64,41.9734 329.5,40C 326.898,39.0229 324.398,37.8563 322,36.5C 321.481,34.5106 322.314,33.5106 324.5,33.5 Z"/></g>
<g><path style="opacity:0.996" fill="#b07138" d="M 554.5,54.5 C 555.167,54.5 555.5,54.8333 555.5,55.5C 554.669,68.3269 554.169,81.3269 554,94.5C 553.826,89.3165 553.326,84.3165 552.5,79.5C 552.826,71.3159 552.492,63.3159 551.5,55.5C 550.598,50.9079 548.931,46.5746 546.5,42.5C 543.033,41.2117 539.7,41.2117 536.5,42.5C 532.932,45.1151 528.932,46.9484 524.5,48C 520.765,50.8533 517.098,53.6867 513.5,56.5C 503.454,63.0404 494.454,70.8737 486.5,80C 484.266,81.7498 481.932,83.2498 479.5,84.5C 479.369,83.7611 479.536,83.0944 480,82.5C 495.794,65.3456 513.961,51.1789 534.5,40C 540.576,37.3114 545.743,38.4781 550,43.5C 551.563,47.2249 553.063,50.8915 554.5,54.5 Z"/></g>
<g><path style="opacity:1" fill="#f8b55f" d="M 536.5,42.5 C 538.827,42.2471 540.827,42.9137 542.5,44.5C 543.484,47.4281 543.817,50.4281 543.5,53.5C 537.945,56.636 532.111,59.3027 526,61.5C 524.486,61.2305 522.986,60.8971 521.5,60.5C 517.566,64.8404 514.233,64.5071 511.5,59.5C 512.193,58.4822 512.859,57.4822 513.5,56.5C 517.098,53.6867 520.765,50.8533 524.5,48C 528.932,46.9484 532.932,45.1151 536.5,42.5 Z"/></g>
<g><path style="opacity:0.051" fill="#9e9b86" d="M 365.5,66.5 C 371.286,73.1361 376.12,80.4694 380,88.5C 382.09,89.152 384.257,89.3187 386.5,89C 388.037,90.1096 388.703,91.6096 388.5,93.5C 387.833,93.5 387.167,93.5 386.5,93.5C 386.5,92.5 386.5,91.5 386.5,90.5C 384.173,90.2471 382.173,90.9137 380.5,92.5C 378.838,88.5356 376.504,85.2023 373.5,82.5C 373.657,81.1266 373.49,79.7932 373,78.5C 369.727,74.9482 367.227,70.9482 365.5,66.5 Z"/></g>
<g><path style="opacity:1" fill="#d3854d" d="M 539.5,72.5 C 535.724,88.9354 528.057,103.269 516.5,115.5C 517,115.833 517.5,116.167 518,116.5C 520.333,115.5 522.667,114.5 525,113.5C 526.479,114.873 526.312,116.373 524.5,118C 520.941,119.228 517.608,120.894 514.5,123C 513.663,124.011 513.33,125.178 513.5,126.5C 515.665,126.116 517.332,126.783 518.5,128.5C 514.933,131.079 510.933,132.579 506.5,133C 505.015,134.756 505.348,135.923 507.5,136.5C 506.058,137.82 505.392,139.486 505.5,141.5C 510.159,143.986 515.159,145.653 520.5,146.5C 522.536,148.984 525.202,149.984 528.5,149.5C 527.016,150.473 526.516,151.807 527,153.5C 529.565,151.821 532.398,151.154 535.5,151.5C 534.612,153.273 533.279,154.606 531.5,155.5C 527.658,155.971 523.992,156.971 520.5,158.5C 522.369,159.624 524.369,160.457 526.5,161C 526.167,161.333 525.833,161.667 525.5,162C 520.614,163.224 515.614,163.891 510.5,164C 510.957,164.414 511.291,164.914 511.5,165.5C 509.929,167.882 509.096,170.549 509,173.5C 508.077,172.241 507.243,170.908 506.5,169.5C 505.284,170.002 504.117,170.335 503,170.5C 502.619,177.05 502.786,183.717 503.5,190.5C 500.448,187.253 496.781,184.92 492.5,183.5C 489.873,182.908 487.206,182.575 484.5,182.5C 491.121,176.379 491.121,170.212 484.5,164C 483.333,163.833 482.167,163.667 481,163.5C 479.319,163.608 478.152,164.275 477.5,165.5C 474.467,166.532 472.467,168.532 471.5,171.5C 468.676,171.011 467.343,169.344 467.5,166.5C 465.076,166.808 462.743,166.474 460.5,165.5C 457.11,164.132 453.776,162.799 450.5,161.5C 447.462,157.041 445.796,152.041 445.5,146.5C 447.689,135.947 448.689,125.281 448.5,114.5C 449.967,111.742 450.633,112.075 450.5,115.5C 454.869,115.533 459.202,115.2 463.5,114.5C 463.281,115.675 463.614,116.675 464.5,117.5C 468.443,122.451 472.776,126.951 477.5,131C 482.073,131.921 486.239,131.088 490,128.5C 492.903,123.657 491.737,120.99 486.5,120.5C 487.101,116.71 486.101,113.544 483.5,111C 485.614,109.502 486.114,107.669 485,105.5C 486.3,102.568 488.3,100.234 491,98.5C 491.219,97.062 491.719,95.7287 492.5,94.5C 495.708,93.198 499.041,92.5313 502.5,92.5C 502.62,90.2655 502.287,88.0989 501.5,86C 502.932,83.7798 504.932,82.2798 507.5,81.5C 508.641,80.5745 508.641,79.7412 507.5,79C 511.564,74.5922 516.397,71.4255 522,69.5C 523.848,72.0414 526.348,73.0414 529.5,72.5C 529.5,73.5 529.5,74.5 529.5,75.5C 533.002,75.0531 536.336,74.0531 539.5,72.5 Z"/></g>
<g><path style="opacity:1" fill="#d8b69d" d="M 323.5,59.5 C 329.144,67.283 333.311,75.9496 336,85.5C 336.072,95.537 339.072,104.537 345,112.5C 345.494,114.134 345.66,115.801 345.5,117.5C 344.5,117.5 343.5,117.5 342.5,117.5C 340.631,119.635 339.964,122.302 340.5,125.5C 339.167,125.5 337.833,125.5 336.5,125.5C 334.958,124.699 333.292,124.366 331.5,124.5C 331.326,122.139 330.993,119.806 330.5,117.5C 332.665,117.884 334.332,117.217 335.5,115.5C 334.675,114.614 333.675,114.281 332.5,114.5C 332.5,113.167 332.5,111.833 332.5,110.5C 336.079,110.234 336.413,108.901 333.5,106.5C 332.675,105.614 331.675,105.281 330.5,105.5C 330.67,104.178 330.337,103.011 329.5,102C 330.167,101.667 330.833,101.333 331.5,101C 330.491,98.8282 328.824,97.6615 326.5,97.5C 326.799,95.396 326.466,93.396 325.5,91.5C 324.914,91.7093 324.414,92.0426 324,92.5C 323.833,90.5 323.667,88.5 323.5,86.5C 324.07,83.0775 324.07,79.7442 323.5,76.5C 324.5,75.8333 325.5,75.1667 326.5,74.5C 325.167,73.5 323.833,72.5 322.5,71.5C 322.002,68.4074 321.002,65.5741 319.5,63C 320.094,62.5357 320.761,62.369 321.5,62.5C 322.117,62.6107 322.617,62.944 323,63.5C 323.49,62.2068 323.657,60.8734 323.5,59.5 Z"/></g>
<g><path style="opacity:0.98" fill="#9f794f" d="M 479.5,84.5 C 477.211,87.6268 474.711,90.6268 472,93.5C 470.991,95.0249 470.491,96.6916 470.5,98.5C 465.727,96.7576 460.727,95.7576 455.5,95.5C 447.213,94.0483 438.713,93.3816 430,93.5C 424.656,93.5006 419.489,93.834 414.5,94.5C 414.167,94.5 413.833,94.5 413.5,94.5C 413.167,94.5 412.833,94.5 412.5,94.5C 404.387,93.283 396.387,94.283 388.5,97.5C 387.702,97.0431 387.369,96.3764 387.5,95.5C 395.322,93.9906 402.988,92.3239 410.5,90.5C 411.167,90.5 411.833,90.5 412.5,90.5C 425.953,90.6134 439.619,91.1134 453.5,92C 455.615,92.5573 457.615,93.3906 459.5,94.5C 462.12,93.4776 464.787,93.4776 467.5,94.5C 470.418,93.4191 472.585,91.4191 474,88.5C 475.451,86.5359 477.284,85.2026 479.5,84.5 Z"/></g>
<g><path style="opacity:0.133" fill="#909689" d="M 410.5,90.5 C 402.988,92.3239 395.322,93.9906 387.5,95.5C 387.833,94.8333 388.167,94.1667 388.5,93.5C 395.746,91.855 403.08,90.855 410.5,90.5 Z"/></g>
<g><path style="opacity:0.2" fill="#94947e" d="M 554.5,54.5 C 553.063,50.8915 551.563,47.2249 550,43.5C 545.743,38.4781 540.576,37.3114 534.5,40C 513.961,51.1789 495.794,65.3456 480,82.5C 479.536,83.0944 479.369,83.7611 479.5,84.5C 477.284,85.2026 475.451,86.5359 474,88.5C 472.585,91.4191 470.418,93.4191 467.5,94.5C 464.787,93.4776 462.12,93.4776 459.5,94.5C 457.615,93.3906 455.615,92.5573 453.5,92C 439.619,91.1134 425.953,90.6134 412.5,90.5C 426.092,89.3527 439.758,89.186 453.5,90C 458.651,90.6616 463.651,91.8282 468.5,93.5C 483.106,75.7252 499.773,60.2252 518.5,47C 523.977,43.7601 529.644,40.7601 535.5,38C 547.709,36.3593 554.042,41.8593 554.5,54.5 Z"/></g>
<g><path style="opacity:1" fill="#f6af5e" d="M 536.5,42.5 C 539.7,41.2117 543.033,41.2117 546.5,42.5C 548.931,46.5746 550.598,50.9079 551.5,55.5C 551.649,56.552 551.483,57.552 551,58.5C 549.908,56.8834 548.408,55.8834 546.5,55.5C 545.839,52.2129 545.339,48.8796 545,45.5C 544.824,49.6877 544.324,53.6877 543.5,57.5C 538.575,58.6689 533.575,60.6689 528.5,63.5C 527.914,63.2907 527.414,62.9574 527,62.5C 520.497,66.1708 513.664,69.1708 506.5,71.5C 499.448,77.2266 492.781,83.2266 486.5,89.5C 485.755,91.7471 484.422,93.5804 482.5,95C 477.425,98.1555 472.758,101.822 468.5,106C 466.833,106.667 465.167,106.667 463.5,106C 460.009,104.63 456.675,103.13 453.5,101.5C 453.5,101.167 453.5,100.833 453.5,100.5C 453.392,98.4862 454.058,96.8195 455.5,95.5C 460.727,95.7576 465.727,96.7576 470.5,98.5C 470.491,96.6916 470.991,95.0249 472,93.5C 474.711,90.6268 477.211,87.6268 479.5,84.5C 481.932,83.2498 484.266,81.7498 486.5,80C 494.454,70.8737 503.454,63.0404 513.5,56.5C 512.859,57.4822 512.193,58.4822 511.5,59.5C 514.233,64.5071 517.566,64.8404 521.5,60.5C 522.986,60.8971 524.486,61.2305 526,61.5C 532.111,59.3027 537.945,56.636 543.5,53.5C 543.817,50.4281 543.484,47.4281 542.5,44.5C 540.827,42.9137 538.827,42.2471 536.5,42.5 Z"/></g>
<g><path style="opacity:1" fill="#ac652f" d="M 546.5,55.5 C 545.636,62.956 544.136,70.2893 542,77.5C 538.714,84.2682 536.047,91.2682 534,98.5C 530.68,100.641 528.846,103.641 528.5,107.5C 527.305,107.866 526.639,108.699 526.5,110C 528.278,112.225 528.778,114.725 528,117.5C 525,119.833 522,122.167 519,124.5C 519.374,126.769 519.374,129.102 519,131.5C 515.196,133.267 511.363,134.933 507.5,136.5C 505.348,135.923 505.015,134.756 506.5,133C 510.933,132.579 514.933,131.079 518.5,128.5C 517.332,126.783 515.665,126.116 513.5,126.5C 513.33,125.178 513.663,124.011 514.5,123C 517.608,120.894 520.941,119.228 524.5,118C 526.312,116.373 526.479,114.873 525,113.5C 522.667,114.5 520.333,115.5 518,116.5C 517.5,116.167 517,115.833 516.5,115.5C 528.057,103.269 535.724,88.9354 539.5,72.5C 541.265,67.5499 542.599,62.5499 543.5,57.5C 544.324,53.6877 544.824,49.6877 545,45.5C 545.339,48.8796 545.839,52.2129 546.5,55.5 Z"/></g>
<g><path style="opacity:1" fill="#efa858" d="M 386.5,93.5 C 387.167,93.5 387.833,93.5 388.5,93.5C 388.167,94.1667 387.833,94.8333 387.5,95.5C 387.369,96.3764 387.702,97.0431 388.5,97.5C 396.387,94.283 404.387,93.283 412.5,94.5C 410.5,94.5 408.5,94.5 406.5,94.5C 406.575,97.2062 406.908,99.8728 407.5,102.5C 408.5,102.5 409.5,102.5 410.5,102.5C 410.5,103.167 410.5,103.833 410.5,104.5C 402.579,104.734 394.579,104.401 386.5,103.5C 384.063,103.598 382.063,104.598 380.5,106.5C 378.454,100.868 379.787,96.2017 384.5,92.5C 384.567,94.4244 384.9,96.4244 385.5,98.5C 386.452,96.9547 386.785,95.288 386.5,93.5 Z"/></g>
<g><path style="opacity:1" fill="#fdfbe5" d="M 413.5,94.5 C 413.833,94.5 414.167,94.5 414.5,94.5C 424.5,94.5 434.5,94.5 444.5,94.5C 444.325,96.6208 444.659,98.6208 445.5,100.5C 435.351,103.53 425.018,104.197 414.5,102.5C 412.257,100.162 411.924,97.4957 413.5,94.5 Z"/></g>
<g><path style="opacity:1" fill="#fbe9d0" d="M 445.5,100.5 C 444.111,103.398 442.944,106.398 442,109.5C 441.25,110.126 440.416,110.626 439.5,111C 443.054,114.477 443.388,118.31 440.5,122.5C 440.833,123.167 441.167,123.833 441.5,124.5C 440.786,135.139 440.119,145.806 439.5,156.5C 441.64,160.983 443.14,165.649 444,170.5C 444.971,169.802 446.137,169.802 447.5,170.5C 449.569,170.176 449.902,169.342 448.5,168C 449.793,167.51 451.127,167.343 452.5,167.5C 452.833,169.5 453.167,171.5 453.5,173.5C 449.989,173.899 446.656,174.566 443.5,175.5C 438.744,175.562 435.078,177.562 432.5,181.5C 443.911,202.665 450.911,201.332 453.5,177.5C 454.406,176.035 455.739,175.035 457.5,174.5C 461.011,175.787 464.511,176.12 468,175.5C 469.593,177.659 471.427,179.659 473.5,181.5C 476.906,183.793 480.573,184.126 484.5,182.5C 487.206,182.575 489.873,182.908 492.5,183.5C 494.441,185.843 496.774,187.843 499.5,189.5C 500.325,191.36 501.325,193.026 502.5,194.5C 504.555,199.869 505.555,205.369 505.5,211C 504.054,214.614 501.387,216.447 497.5,216.5C 497.034,218.201 497.034,219.701 497.5,221C 495.622,222.543 494.122,224.376 493,226.5C 492.667,225.5 492.333,224.5 492,223.5C 491.691,224.766 491.191,225.933 490.5,227C 485.824,228.999 481.991,232.833 479,238.5C 478.333,239.833 477.667,239.833 477,238.5C 476.51,239.793 476.343,241.127 476.5,242.5C 472.58,242.232 468.58,242.899 464.5,244.5C 464.5,245.5 464.5,246.5 464.5,247.5C 461.518,247.963 458.518,248.296 455.5,248.5C 453.53,251.548 454.196,253.715 457.5,255C 455.942,255.21 454.609,255.71 453.5,256.5C 451.833,256.5 450.167,256.5 448.5,256.5C 442.167,256.5 435.833,256.5 429.5,256.5C 427.821,255.06 425.821,254.06 423.5,253.5C 420.234,254.535 417.068,255.868 414,257.5C 412.297,256.3 410.797,256.633 409.5,258.5C 408.914,258.291 408.414,257.957 408,257.5C 401.788,260.253 395.622,260.086 389.5,257C 388.939,255.324 387.939,253.991 386.5,253C 382.415,252.767 378.415,252.267 374.5,251.5C 368.034,245.207 363.701,237.874 361.5,229.5C 359.671,228.718 358.171,229.384 357,231.5C 354.835,229.347 354.002,226.681 354.5,223.5C 353.5,223.5 352.5,223.5 351.5,223.5C 351.351,222.448 351.517,221.448 352,220.5C 353.458,221.747 354.958,221.747 356.5,220.5C 358.033,218.711 359.033,216.711 359.5,214.5C 361.929,214.415 363.929,213.415 365.5,211.5C 366.25,209.07 366.583,206.736 366.5,204.5C 365.645,203.707 364.811,204.04 364,205.5C 363.5,205 363,204.5 362.5,204C 365.121,202.405 367.787,200.905 370.5,199.5C 372.086,197.827 372.753,195.827 372.5,193.5C 373.675,193.719 374.675,193.386 375.5,192.5C 375.865,189.246 377.531,187.079 380.5,186C 384.129,185.593 387.629,186.093 391,187.5C 392.734,186.751 394.567,186.251 396.5,186C 396.167,185.667 395.833,185.333 395.5,185C 398.767,184.105 399.434,182.272 397.5,179.5C 397.557,178.391 397.89,177.391 398.5,176.5C 399.434,175.432 399.768,174.099 399.5,172.5C 403.167,172.5 406.833,172.5 410.5,172.5C 414.156,172.503 417.489,171.503 420.5,169.5C 422.814,170.91 424.48,170.243 425.5,167.5C 424.79,164.914 425.79,162.914 428.5,161.5C 428.833,159.667 429.167,157.833 429.5,156C 428.896,148.841 428.396,141.674 428,134.5C 425.679,126.24 423.679,117.907 422,109.5C 420.233,106.228 417.733,103.895 414.5,102.5C 425.018,104.197 435.351,103.53 445.5,100.5 Z"/></g>
<g><path style="opacity:1" fill="#ab642e" d="M 322.5,56.5 C 324.017,56.5106 325.184,57.1772 326,58.5C 326.997,60.3231 328.164,61.9897 329.5,63.5C 332.465,67.875 334.965,72.5417 337,77.5C 340.825,89.973 344.825,102.306 349,114.5C 350.015,118.44 350.515,122.44 350.5,126.5C 349.5,126.5 348.5,126.5 347.5,126.5C 347.66,124.801 347.494,123.134 347,121.5C 345.333,120.267 343.833,118.933 342.5,117.5C 343.5,117.5 344.5,117.5 345.5,117.5C 345.66,115.801 345.494,114.134 345,112.5C 339.072,104.537 336.072,95.537 336,85.5C 333.311,75.9496 329.144,67.283 323.5,59.5C 322.89,58.609 322.557,57.609 322.5,56.5 Z"/></g>
<g><path style="opacity:1" fill="#f5dabe" d="M 321.5,62.5 C 320.761,62.369 320.094,62.5357 319.5,63C 321.002,65.5741 322.002,68.4074 322.5,71.5C 323.833,72.5 325.167,73.5 326.5,74.5C 325.5,75.1667 324.5,75.8333 323.5,76.5C 324.07,79.7442 324.07,83.0775 323.5,86.5C 323.667,88.5 323.833,90.5 324,92.5C 324.414,92.0426 324.914,91.7093 325.5,91.5C 326.466,93.396 326.799,95.396 326.5,97.5C 328.824,97.6615 330.491,98.8282 331.5,101C 330.833,101.333 330.167,101.667 329.5,102C 330.337,103.011 330.67,104.178 330.5,105.5C 331.675,105.281 332.675,105.614 333.5,106.5C 336.413,108.901 336.079,110.234 332.5,110.5C 332.5,111.833 332.5,113.167 332.5,114.5C 333.675,114.281 334.675,114.614 335.5,115.5C 334.332,117.217 332.665,117.884 330.5,117.5C 330.993,119.806 331.326,122.139 331.5,124.5C 330.076,126.515 329.41,128.848 329.5,131.5C 334.054,131.382 336.054,133.382 335.5,137.5C 333.259,136.968 331.759,135.635 331,133.5C 329.921,135.394 328.587,135.727 327,134.5C 325.143,130.986 323.309,127.486 321.5,124C 322.99,121.8 322.657,119.966 320.5,118.5C 319.808,119.025 319.308,119.692 319,120.5C 318.333,117.167 318.333,113.833 319,110.5C 321.91,109.55 323.077,107.55 322.5,104.5C 320.897,104.688 319.563,104.188 318.5,103C 320.515,101.445 320.848,99.6114 319.5,97.5C 318.28,98.7111 317.113,98.7111 316,97.5C 313.768,93.0888 312.268,88.4221 311.5,83.5C 311.672,81.4523 312.005,79.4523 312.5,77.5C 311.712,71.7066 313.212,66.7066 317,62.5C 317.49,61.2068 317.657,59.8734 317.5,58.5C 320.5,58.1667 321.833,59.5 321.5,62.5 Z"/></g>
<g><path style="opacity:1" fill="#db904b" d="M 373.5,82.5 C 376.504,85.2023 378.838,88.5356 380.5,92.5C 382.173,90.9137 384.173,90.2471 386.5,90.5C 386.5,91.5 386.5,92.5 386.5,93.5C 386.785,95.288 386.452,96.9547 385.5,98.5C 384.9,96.4244 384.567,94.4244 384.5,92.5C 379.787,96.2017 378.454,100.868 380.5,106.5C 382.063,104.598 384.063,103.598 386.5,103.5C 394.579,104.401 402.579,104.734 410.5,104.5C 411.212,107.97 412.045,111.303 413,114.5C 410.619,115.435 408.119,115.768 405.5,115.5C 405.762,118.921 404.428,119.921 401.5,118.5C 400.532,119.489 399.365,120.156 398,120.5C 395.313,119.975 392.48,119.975 389.5,120.5C 389.657,121.873 389.49,123.207 389,124.5C 386.146,124.23 383.313,124.73 380.5,126C 378.845,127.444 378.178,129.278 378.5,131.5C 376.833,131.5 375.167,131.5 373.5,131.5C 373.617,133.484 372.95,135.15 371.5,136.5C 369.125,133.678 366.459,132.012 363.5,131.5C 362.84,127.485 362.84,123.652 363.5,120C 365.921,119.002 367.255,117.168 367.5,114.5C 366.832,111.498 365.498,108.831 363.5,106.5C 364.855,105.325 364.688,104.325 363,103.5C 360.214,105.184 358.38,104.517 357.5,101.5C 358.278,99.853 359.444,98.5196 361,97.5C 361.916,94.8006 362.416,92.3006 362.5,90C 361.924,88.2856 360.757,87.1189 359,86.5C 358.667,86.8333 358.333,87.1667 358,87.5C 357.667,85.5 357.333,83.5 357,81.5C 356.667,82.1667 356.333,82.8333 356,83.5C 354.644,82.6198 353.144,82.2865 351.5,82.5C 351.703,80.6096 351.037,79.1096 349.5,78C 351.528,68.537 347.862,64.3703 338.5,65.5C 340.176,64.8166 340.843,63.4832 340.5,61.5C 342.199,61.3398 343.866,61.5065 345.5,62C 346.473,64.5474 348.307,66.0474 351,66.5C 351.54,69.3613 352.54,72.028 354,74.5C 358.021,77.5449 360.188,81.5449 360.5,86.5C 365.111,87.0377 369.444,88.3711 373.5,90.5C 374.449,87.8742 374.449,85.2075 373.5,82.5 Z"/></g>
<g><path style="opacity:1" fill="#e4b289" d="M 546.5,55.5 C 548.408,55.8834 549.908,56.8834 551,58.5C 551.483,57.552 551.649,56.552 551.5,55.5C 552.492,63.3159 552.826,71.3159 552.5,79.5C 552.666,85.1764 552.499,90.8431 552,96.5C 549.443,103.617 547.776,110.95 547,118.5C 544.154,126.237 540.654,133.57 536.5,140.5C 536.338,138.473 536.505,136.473 537,134.5C 539.371,130.96 541.538,127.294 543.5,123.5C 543.252,120.994 541.919,119.328 539.5,118.5C 541.236,115.895 543.069,115.895 545,118.5C 545.692,117.975 546.192,117.308 546.5,116.5C 545.264,114.689 545.264,112.856 546.5,111C 545.5,109.333 544.5,107.667 543.5,106C 544.056,104.989 544.722,104.156 545.5,103.5C 546.209,102.596 547.209,102.263 548.5,102.5C 550.283,95.6612 550.95,88.6612 550.5,81.5C 548.473,81.3379 546.473,81.5045 544.5,82C 543.177,82.8159 542.511,83.9826 542.5,85.5C 541.778,85.0825 541.278,84.4158 541,83.5C 539.549,88.3985 538.216,93.3985 537,98.5C 533.177,100.816 530.343,103.816 528.5,107.5C 528.846,103.641 530.68,100.641 534,98.5C 536.047,91.2682 538.714,84.2682 542,77.5C 544.136,70.2893 545.636,62.956 546.5,55.5 Z"/></g>
<g><path style="opacity:1" fill="#f4dac0" d="M 545.5,103.5 C 544.347,102.687 544.347,101.687 545.5,100.5C 544.758,99.7132 543.925,99.0465 543,98.5C 542.502,95.1832 542.335,91.8499 542.5,88.5C 542.5,87.5 542.5,86.5 542.5,85.5C 542.511,83.9826 543.177,82.8159 544.5,82C 546.473,81.5045 548.473,81.3379 550.5,81.5C 550.95,88.6612 550.283,95.6612 548.5,102.5C 547.209,102.263 546.209,102.596 545.5,103.5 Z"/></g>
<g><path style="opacity:1" fill="#d4874e" d="M 329.5,63.5 C 331.344,64.1603 333.01,65.1603 334.5,66.5C 335.849,66.1543 337.183,65.821 338.5,65.5C 347.862,64.3703 351.528,68.537 349.5,78C 351.037,79.1096 351.703,80.6096 351.5,82.5C 353.144,82.2865 354.644,82.6198 356,83.5C 356.333,82.8333 356.667,82.1667 357,81.5C 357.333,83.5 357.667,85.5 358,87.5C 358.333,87.1667 358.667,86.8333 359,86.5C 360.757,87.1189 361.924,88.2856 362.5,90C 362.416,92.3006 361.916,94.8006 361,97.5C 359.444,98.5196 358.278,99.853 357.5,101.5C 358.38,104.517 360.214,105.184 363,103.5C 364.688,104.325 364.855,105.325 363.5,106.5C 365.498,108.831 366.832,111.498 367.5,114.5C 367.255,117.168 365.921,119.002 363.5,120C 362.84,123.652 362.84,127.485 363.5,131.5C 366.459,132.012 369.125,133.678 371.5,136.5C 372.95,135.15 373.617,133.484 373.5,131.5C 375.167,131.5 376.833,131.5 378.5,131.5C 378.178,129.278 378.845,127.444 380.5,126C 383.313,124.73 386.146,124.23 389,124.5C 389.49,123.207 389.657,121.873 389.5,120.5C 392.48,119.975 395.313,119.975 398,120.5C 399.365,120.156 400.532,119.489 401.5,118.5C 404.428,119.921 405.762,118.921 405.5,115.5C 408.119,115.768 410.619,115.435 413,114.5C 412.045,111.303 411.212,107.97 410.5,104.5C 410.5,103.833 410.5,103.167 410.5,102.5C 413.756,104.25 416.589,106.583 419,109.5C 419.745,111.203 420.579,112.87 421.5,114.5C 423.566,123.062 424.9,131.728 425.5,140.5C 425.827,145.214 425.493,149.88 424.5,154.5C 421.637,159.53 417.637,163.364 412.5,166C 411.183,168.961 408.849,170.128 405.5,169.5C 402.721,169.08 400.055,168.413 397.5,167.5C 390.772,162.914 385.272,164.248 381,171.5C 380.083,175.762 380.583,179.762 382.5,183.5C 380.833,183.5 379.167,183.5 377.5,183.5C 371.99,186.152 366.824,189.485 362,193.5C 356.626,194.268 352.793,197.102 350.5,202C 349.552,202.483 348.552,202.649 347.5,202.5C 345.833,203.167 344.167,203.833 342.5,204.5C 343.275,202.388 343.275,200.388 342.5,198.5C 344.434,195.051 347.1,192.051 350.5,189.5C 351.093,187.618 351.76,185.785 352.5,184C 349.945,182.445 348.112,180.278 347,177.5C 346.46,175.865 346.96,174.532 348.5,173.5C 345.785,170.285 344.451,166.785 344.5,163C 343.437,161.812 342.103,161.312 340.5,161.5C 340.762,162.978 340.429,164.311 339.5,165.5C 336.763,163.898 333.763,163.064 330.5,163C 329.353,160.915 330.02,159.415 332.5,158.5C 330.827,156.914 328.827,156.247 326.5,156.5C 325.588,155.262 325.421,153.928 326,152.5C 332.21,154.533 333.71,152.867 330.5,147.5C 332.605,149.637 335.105,151.304 338,152.5C 341.052,151.368 344.052,150.035 347,148.5C 347.825,144.789 347.659,141.122 346.5,137.5C 343.11,135.148 339.777,132.814 336.5,130.5C 336.5,128.833 336.5,127.167 336.5,125.5C 337.833,125.5 339.167,125.5 340.5,125.5C 339.964,122.302 340.631,119.635 342.5,117.5C 343.833,118.933 345.333,120.267 347,121.5C 347.494,123.134 347.66,124.801 347.5,126.5C 348.5,126.5 349.5,126.5 350.5,126.5C 350.515,122.44 350.015,118.44 349,114.5C 344.825,102.306 340.825,89.973 337,77.5C 334.965,72.5417 332.465,67.875 329.5,63.5 Z"/></g>
<g><path style="opacity:0.961" fill="#a2693b" d="M 555.5,55.5 C 555.5,68.8333 555.5,82.1667 555.5,95.5C 553.115,103.58 551.281,111.913 550,120.5C 547.504,125.32 545.504,130.32 544,135.5C 538.523,139.715 535.69,145.048 535.5,151.5C 532.398,151.154 529.565,151.821 527,153.5C 526.516,151.807 527.016,150.473 528.5,149.5C 531.243,147.761 533.243,145.427 534.5,142.5C 534.833,141.5 535.5,140.833 536.5,140.5C 540.654,133.57 544.154,126.237 547,118.5C 547.776,110.95 549.443,103.617 552,96.5C 552.499,90.8431 552.666,85.1764 552.5,79.5C 553.326,84.3165 553.826,89.3165 554,94.5C 554.169,81.3269 554.669,68.3269 555.5,55.5 Z"/></g>
<g><path style="opacity:1" fill="#dc914b" d="M 543.5,57.5 C 542.599,62.5499 541.265,67.5499 539.5,72.5C 536.336,74.0531 533.002,75.0531 529.5,75.5C 529.5,74.5 529.5,73.5 529.5,72.5C 526.348,73.0414 523.848,72.0414 522,69.5C 516.397,71.4255 511.564,74.5922 507.5,79C 508.641,79.7412 508.641,80.5745 507.5,81.5C 504.932,82.2798 502.932,83.7798 501.5,86C 502.287,88.0989 502.62,90.2655 502.5,92.5C 499.041,92.5313 495.708,93.198 492.5,94.5C 491.719,95.7287 491.219,97.062 491,98.5C 488.3,100.234 486.3,102.568 485,105.5C 486.114,107.669 485.614,109.502 483.5,111C 486.101,113.544 487.101,116.71 486.5,120.5C 491.737,120.99 492.903,123.657 490,128.5C 486.239,131.088 482.073,131.921 477.5,131C 472.776,126.951 468.443,122.451 464.5,117.5C 463.614,116.675 463.281,115.675 463.5,114.5C 459.202,115.2 454.869,115.533 450.5,115.5C 450.633,112.075 449.967,111.742 448.5,114.5C 450.912,110.639 452.579,106.306 453.5,101.5C 456.675,103.13 460.009,104.63 463.5,106C 465.167,106.667 466.833,106.667 468.5,106C 472.758,101.822 477.425,98.1555 482.5,95C 484.422,93.5804 485.755,91.7471 486.5,89.5C 492.781,83.2266 499.448,77.2266 506.5,71.5C 513.664,69.1708 520.497,66.1708 527,62.5C 527.414,62.9574 527.914,63.2907 528.5,63.5C 533.575,60.6689 538.575,58.6689 543.5,57.5 Z"/></g>
<g><path style="opacity:1" fill="#a36a3b" d="M 309.5,85.5 C 311.349,96.5902 313.016,107.757 314.5,119C 314.569,120.986 315.235,122.486 316.5,123.5C 320.06,130.402 324.06,137.068 328.5,143.5C 328.989,144.995 329.655,146.329 330.5,147.5C 333.71,152.867 332.21,154.533 326,152.5C 325.421,153.928 325.588,155.262 326.5,156.5C 323.224,155.878 321.891,153.878 322.5,150.5C 324.167,150.5 325.833,150.5 327.5,150.5C 326.108,145.266 323.608,140.599 320,136.5C 319.495,131.156 317.162,126.823 313,123.5C 312.287,114.99 310.787,106.657 308.5,98.5C 308.182,93.9677 308.515,89.6344 309.5,85.5 Z"/></g>
<g><path style="opacity:1" fill="#d6ad91" d="M 542.5,85.5 C 542.5,86.5 542.5,87.5 542.5,88.5C 541.239,91.2578 540.406,94.2578 540,97.5C 537.525,100.495 534.692,102.828 531.5,104.5C 531.682,106.591 531.348,108.591 530.5,110.5C 532.262,114.002 532.762,117.668 532,121.5C 528.591,121.405 525.258,122.405 522,124.5C 521.667,127.5 521.333,130.5 521,133.5C 516.205,133.525 514.371,136.191 515.5,141.5C 517.737,140.551 520.071,139.884 522.5,139.5C 522.575,142.206 522.908,144.873 523.5,147.5C 525.46,146.862 527.293,146.862 529,147.5C 529.483,146.552 529.649,145.552 529.5,144.5C 531.322,144.169 532.989,143.502 534.5,142.5C 533.243,145.427 531.243,147.761 528.5,149.5C 525.202,149.984 522.536,148.984 520.5,146.5C 515.159,145.653 510.159,143.986 505.5,141.5C 505.392,139.486 506.058,137.82 507.5,136.5C 511.363,134.933 515.196,133.267 519,131.5C 519.374,129.102 519.374,126.769 519,124.5C 522,122.167 525,119.833 528,117.5C 528.778,114.725 528.278,112.225 526.5,110C 526.639,108.699 527.305,107.866 528.5,107.5C 530.343,103.816 533.177,100.816 537,98.5C 538.216,93.3985 539.549,88.3985 541,83.5C 541.278,84.4158 541.778,85.0825 542.5,85.5 Z"/></g>
<g><path style="opacity:0.275" fill="#949683" d="M 313.5,34.5 C 313.663,36.8568 313.497,39.1902 313,41.5C 310.28,46.101 308.613,51.101 308,56.5C 307.173,70.6728 307.339,84.6728 308.5,98.5C 310.787,106.657 312.287,114.99 313,123.5C 317.162,126.823 319.495,131.156 320,136.5C 323.608,140.599 326.108,145.266 327.5,150.5C 325.833,150.5 324.167,150.5 322.5,150.5C 323.058,149.21 324.058,148.377 325.5,148C 320.463,140.231 315.796,132.231 311.5,124C 309.499,112.664 307.499,101.331 305.5,90C 305.474,78.3503 305.974,66.517 307,54.5C 308.1,47.3677 310.267,40.701 313.5,34.5 Z"/></g>
<g><path style="opacity:1" fill="#e7cdb7" d="M 542.5,88.5 C 542.335,91.8499 542.502,95.1832 543,98.5C 543.925,99.0465 544.758,99.7132 545.5,100.5C 544.347,101.687 544.347,102.687 545.5,103.5C 544.722,104.156 544.056,104.989 543.5,106C 544.5,107.667 545.5,109.333 546.5,111C 545.264,112.856 545.264,114.689 546.5,116.5C 546.192,117.308 545.692,117.975 545,118.5C 543.069,115.895 541.236,115.895 539.5,118.5C 541.919,119.328 543.252,120.994 543.5,123.5C 541.538,127.294 539.371,130.96 537,134.5C 536.505,136.473 536.338,138.473 536.5,140.5C 535.5,140.833 534.833,141.5 534.5,142.5C 532.989,143.502 531.322,144.169 529.5,144.5C 529.649,145.552 529.483,146.552 529,147.5C 527.293,146.862 525.46,146.862 523.5,147.5C 522.908,144.873 522.575,142.206 522.5,139.5C 520.071,139.884 517.737,140.551 515.5,141.5C 514.371,136.191 516.205,133.525 521,133.5C 521.333,130.5 521.667,127.5 522,124.5C 525.258,122.405 528.591,121.405 532,121.5C 532.762,117.668 532.262,114.002 530.5,110.5C 531.348,108.591 531.682,106.591 531.5,104.5C 534.692,102.828 537.525,100.495 540,97.5C 540.406,94.2578 541.239,91.2578 542.5,88.5 Z"/></g>
<g><path style="opacity:1" fill="#f2cda8" d="M 412.5,94.5 C 412.833,94.5 413.167,94.5 413.5,94.5C 411.924,97.4957 412.257,100.162 414.5,102.5C 417.733,103.895 420.233,106.228 422,109.5C 423.679,117.907 425.679,126.24 428,134.5C 428.396,141.674 428.896,148.841 429.5,156C 429.167,157.833 428.833,159.667 428.5,161.5C 425.79,162.914 424.79,164.914 425.5,167.5C 424.48,170.243 422.814,170.91 420.5,169.5C 417.489,171.503 414.156,172.503 410.5,172.5C 416.232,168.201 421.732,163.535 427,158.5C 427.609,152.279 427.109,146.279 425.5,140.5C 424.9,131.728 423.566,123.062 421.5,114.5C 420.579,112.87 419.745,111.203 419,109.5C 416.589,106.583 413.756,104.25 410.5,102.5C 409.5,102.5 408.5,102.5 407.5,102.5C 406.908,99.8728 406.575,97.2062 406.5,94.5C 408.5,94.5 410.5,94.5 412.5,94.5 Z"/></g>
<g><path style="opacity:1" fill="#dfa16f" d="M 453.5,100.5 C 453.5,100.833 453.5,101.167 453.5,101.5C 452.579,106.306 450.912,110.639 448.5,114.5C 448.689,125.281 447.689,135.947 445.5,146.5C 445.796,152.041 447.462,157.041 450.5,161.5C 453.776,162.799 457.11,164.132 460.5,165.5C 462.743,166.474 465.076,166.808 467.5,166.5C 467.343,169.344 468.676,171.011 471.5,171.5C 471.5,172.5 471.5,173.5 471.5,174.5C 467.116,172.398 462.449,170.898 457.5,170C 453.659,165.859 449.493,162.026 445,158.5C 444.149,153.032 443.649,147.532 443.5,142C 445.263,129.941 446.43,117.774 447,105.5C 448.191,102.466 450.358,100.799 453.5,100.5 Z"/></g>
<g><path style="opacity:1" fill="#eec7a2" d="M 312.5,77.5 C 312.005,79.4523 311.672,81.4523 311.5,83.5C 312.268,88.4221 313.768,93.0888 316,97.5C 317.113,98.7111 318.28,98.7111 319.5,97.5C 320.848,99.6114 320.515,101.445 318.5,103C 319.563,104.188 320.897,104.688 322.5,104.5C 323.077,107.55 321.91,109.55 319,110.5C 318.333,113.833 318.333,117.167 319,120.5C 319.308,119.692 319.808,119.025 320.5,118.5C 322.657,119.966 322.99,121.8 321.5,124C 323.309,127.486 325.143,130.986 327,134.5C 328.587,135.727 329.921,135.394 331,133.5C 331.759,135.635 333.259,136.968 335.5,137.5C 336.054,133.382 334.054,131.382 329.5,131.5C 329.41,128.848 330.076,126.515 331.5,124.5C 333.292,124.366 334.958,124.699 336.5,125.5C 336.5,127.167 336.5,128.833 336.5,130.5C 336.955,132.367 337.622,134.2 338.5,136C 338.003,142.096 334.67,144.596 328.5,143.5C 324.06,137.068 320.06,130.402 316.5,123.5C 315.172,118.864 315.172,114.197 316.5,109.5C 313.53,101.182 311.53,92.6816 310.5,84C 310.533,81.3897 311.2,79.223 312.5,77.5 Z"/></g>
<g><path style="opacity:0.714" fill="#969178" d="M 555.5,95.5 C 555.048,115.506 548.714,133.339 536.5,149C 540.037,152.744 539.37,156.078 534.5,159C 532.866,159.494 531.199,159.66 529.5,159.5C 529.784,161.415 529.451,163.081 528.5,164.5C 528.5,162.5 528.5,160.5 528.5,158.5C 531.449,158.069 534.116,156.902 536.5,155C 537.985,153.244 537.652,152.077 535.5,151.5C 535.69,145.048 538.523,139.715 544,135.5C 545.504,130.32 547.504,125.32 550,120.5C 551.281,111.913 553.115,103.58 555.5,95.5 Z"/></g>
<g><path style="opacity:1" fill="#db9864" d="M 336.5,130.5 C 339.777,132.814 343.11,135.148 346.5,137.5C 347.659,141.122 347.825,144.789 347,148.5C 344.052,150.035 341.052,151.368 338,152.5C 335.105,151.304 332.605,149.637 330.5,147.5C 329.655,146.329 328.989,144.995 328.5,143.5C 334.67,144.596 338.003,142.096 338.5,136C 337.622,134.2 336.955,132.367 336.5,130.5 Z"/></g>
<g><path style="opacity:1" fill="#f7dfc0" d="M 381.5,144.5 C 387.525,143.512 391.858,145.679 394.5,151C 394.375,152.627 393.875,154.127 393,155.5C 389.532,156.803 386.032,156.803 382.5,155.5C 378.898,152.149 378.565,148.482 381.5,144.5 Z"/></g>
<g><path style="opacity:1" fill="#de9f6d" d="M 478.5,143.5 C 487.664,141.442 491.331,145.108 489.5,154.5C 482.391,157.78 476.724,156.114 472.5,149.5C 472.35,145.175 474.35,143.175 478.5,143.5 Z"/></g>
<g><path style="opacity:1" fill="#f8e0c3" d="M 478.5,143.5 C 486.626,143.285 489.293,146.952 486.5,154.5C 481.758,154.864 477.592,153.53 474,150.5C 473.589,146.859 475.089,144.526 478.5,143.5 Z"/></g>
<g><path style="opacity:1" fill="#f6dbbc" d="M 414.5,94.5 C 419.489,93.834 424.656,93.5006 430,93.5C 438.713,93.3816 447.213,94.0483 455.5,95.5C 454.058,96.8195 453.392,98.4862 453.5,100.5C 450.358,100.799 448.191,102.466 447,105.5C 446.43,117.774 445.263,129.941 443.5,142C 443.649,147.532 444.149,153.032 445,158.5C 449.493,162.026 453.659,165.859 457.5,170C 462.449,170.898 467.116,172.398 471.5,174.5C 471.263,175.791 471.596,176.791 472.5,177.5C 472.833,178.833 473.167,180.167 473.5,181.5C 471.427,179.659 469.593,177.659 468,175.5C 464.511,176.12 461.011,175.787 457.5,174.5C 455.739,175.035 454.406,176.035 453.5,177.5C 450.495,175.701 447.162,175.034 443.5,175.5C 446.656,174.566 449.989,173.899 453.5,173.5C 453.167,171.5 452.833,169.5 452.5,167.5C 451.127,167.343 449.793,167.51 448.5,168C 449.902,169.342 449.569,170.176 447.5,170.5C 446.137,169.802 444.971,169.802 444,170.5C 443.14,165.649 441.64,160.983 439.5,156.5C 440.119,145.806 440.786,135.139 441.5,124.5C 441.167,123.833 440.833,123.167 440.5,122.5C 443.388,118.31 443.054,114.477 439.5,111C 440.416,110.626 441.25,110.126 442,109.5C 442.944,106.398 444.111,103.398 445.5,100.5C 444.659,98.6208 444.325,96.6208 444.5,94.5C 434.5,94.5 424.5,94.5 414.5,94.5 Z"/></g>
<g><path style="opacity:0.224" fill="#959986" d="M 322.5,150.5 C 321.891,153.878 323.224,155.878 326.5,156.5C 324.762,162.927 327.095,165.594 333.5,164.5C 333.598,166.553 332.931,168.22 331.5,169.5C 331.5,168.5 331.5,167.5 331.5,166.5C 326.211,166.373 324.211,163.873 325.5,159C 323.259,157.261 321.592,155.094 320.5,152.5C 320.855,151.478 321.522,150.811 322.5,150.5 Z"/></g>
<g><path style="opacity:1" fill="#d79562" d="M 425.5,140.5 C 427.109,146.279 427.609,152.279 427,158.5C 421.732,163.535 416.232,168.201 410.5,172.5C 406.833,172.5 403.167,172.5 399.5,172.5C 399.768,174.099 399.434,175.432 398.5,176.5C 398.632,173.43 398.299,170.43 397.5,167.5C 400.055,168.413 402.721,169.08 405.5,169.5C 408.849,170.128 411.183,168.961 412.5,166C 417.637,163.364 421.637,159.53 424.5,154.5C 425.493,149.88 425.827,145.214 425.5,140.5 Z"/></g>
<g><path style="opacity:1" fill="#1a1009" d="M 484.5,182.5 C 480.573,184.126 476.906,183.793 473.5,181.5C 473.167,180.167 472.833,178.833 472.5,177.5C 472.231,172.629 473.897,168.629 477.5,165.5C 478.152,164.275 479.319,163.608 481,163.5C 482.167,163.667 483.333,163.833 484.5,164C 491.121,170.212 491.121,176.379 484.5,182.5 Z"/></g>
<g><path style="opacity:1" fill="#99958f" d="M 476.5,168.5 C 479.957,168.667 480.29,169.667 477.5,171.5C 476.614,170.675 476.281,169.675 476.5,168.5 Z"/></g>
<g><path style="opacity:1" fill="#b9703f" d="M 535.5,151.5 C 537.652,152.077 537.985,153.244 536.5,155C 534.116,156.902 531.449,158.069 528.5,158.5C 528.5,160.5 528.5,162.5 528.5,164.5C 527.71,165.401 526.71,166.068 525.5,166.5C 521.689,165.355 517.689,165.188 513.5,166C 512.106,166.956 511.439,168.289 511.5,170C 516.35,187.104 518.684,204.604 518.5,222.5C 517.167,223.833 515.833,223.833 514.5,222.5C 514.167,222.5 513.833,222.5 513.5,222.5C 513.682,220.409 513.348,218.409 512.5,216.5C 514.272,215.73 515.272,214.397 515.5,212.5C 514.254,209.972 513.254,207.305 512.5,204.5C 511.859,203.007 510.859,202.007 509.5,201.5C 507.809,200.136 506.142,198.803 504.5,197.5C 504.326,195.139 503.993,192.806 503.5,190.5C 502.786,183.717 502.619,177.05 503,170.5C 504.117,170.335 505.284,170.002 506.5,169.5C 507.243,170.908 508.077,172.241 509,173.5C 509.096,170.549 509.929,167.882 511.5,165.5C 511.291,164.914 510.957,164.414 510.5,164C 515.614,163.891 520.614,163.224 525.5,162C 525.833,161.667 526.167,161.333 526.5,161C 524.369,160.457 522.369,159.624 520.5,158.5C 523.992,156.971 527.658,155.971 531.5,155.5C 533.279,154.606 534.612,153.273 535.5,151.5 Z"/></g>
<g><path style="opacity:1" fill="#2c1b10" d="M 397.5,167.5 C 398.299,170.43 398.632,173.43 398.5,176.5C 397.89,177.391 397.557,178.391 397.5,179.5C 396.023,181.807 394.023,183.64 391.5,185C 388.376,185.303 385.376,184.803 382.5,183.5C 380.583,179.762 380.083,175.762 381,171.5C 385.272,164.248 390.772,162.914 397.5,167.5 Z"/></g>
<g><path style="opacity:1" fill="#65472f" d="M 477.5,165.5 C 473.897,168.629 472.231,172.629 472.5,177.5C 471.596,176.791 471.263,175.791 471.5,174.5C 471.5,173.5 471.5,172.5 471.5,171.5C 472.467,168.532 474.467,166.532 477.5,165.5 Z"/></g>
<g><path style="opacity:1" fill="#b6b1ac" d="M 384.5,171.5 C 387.957,171.667 388.29,172.667 385.5,174.5C 384.614,173.675 384.281,172.675 384.5,171.5 Z"/></g>
<g><path style="opacity:1" fill="#c37540" d="M 326.5,156.5 C 328.827,156.247 330.827,156.914 332.5,158.5C 330.02,159.415 329.353,160.915 330.5,163C 333.763,163.064 336.763,163.898 339.5,165.5C 340.429,164.311 340.762,162.978 340.5,161.5C 342.103,161.312 343.437,161.812 344.5,163C 344.451,166.785 345.785,170.285 348.5,173.5C 346.96,174.532 346.46,175.865 347,177.5C 348.112,180.278 349.945,182.445 352.5,184C 351.76,185.785 351.093,187.618 350.5,189.5C 347.1,192.051 344.434,195.051 342.5,198.5C 341.549,199.919 341.216,201.585 341.5,203.5C 339.5,203.167 337.5,202.833 335.5,202.5C 334.948,200.669 334.948,199.003 335.5,197.5C 333.796,196.177 332.463,196.51 331.5,198.5C 332.645,199.891 332.645,201.224 331.5,202.5C 330.22,193.137 330.22,183.804 331.5,174.5C 331.5,173.167 331.5,171.833 331.5,170.5C 331.5,170.167 331.5,169.833 331.5,169.5C 332.931,168.22 333.598,166.553 333.5,164.5C 327.095,165.594 324.762,162.927 326.5,156.5 Z"/></g>
<g><path style="opacity:1" fill="#2c1d14" d="M 443.5,175.5 C 447.162,175.034 450.495,175.701 453.5,177.5C 450.911,201.332 443.911,202.665 432.5,181.5C 435.078,177.562 438.744,175.562 443.5,175.5 Z"/></g>
<g><path style="opacity:1" fill="#a49f97" d="M 439.5,180.5 C 441.527,180.338 443.527,180.505 445.5,181C 443.112,181.303 440.945,182.137 439,183.5C 438.53,182.423 438.697,181.423 439.5,180.5 Z"/></g>
<g><path style="opacity:1" fill="#e0aa80" d="M 492.5,183.5 C 496.781,184.92 500.448,187.253 503.5,190.5C 503.993,192.806 504.326,195.139 504.5,197.5C 503.833,196.5 503.167,195.5 502.5,194.5C 501.325,193.026 500.325,191.36 499.5,189.5C 496.774,187.843 494.441,185.843 492.5,183.5 Z"/></g>
<g><path style="opacity:1" fill="#d09e7e" d="M 509.5,201.5 C 510.859,202.007 511.859,203.007 512.5,204.5C 513.254,207.305 514.254,209.972 515.5,212.5C 515.272,214.397 514.272,215.73 512.5,216.5C 513.348,218.409 513.682,220.409 513.5,222.5C 512.001,220.146 510.667,217.646 509.5,215C 508.512,210.694 508.512,206.194 509.5,201.5 Z"/></g>
<g><path style="opacity:1" fill="#eccaad" d="M 377.5,183.5 C 374.721,186.88 372.054,190.38 369.5,194C 367.975,195.009 366.308,195.509 364.5,195.5C 364.5,196.5 364.5,197.5 364.5,198.5C 360.967,198.505 357.8,199.505 355,201.5C 354.437,202.725 354.77,203.725 356,204.5C 356.419,203.328 357.085,202.328 358,201.5C 358.497,203.81 358.663,206.143 358.5,208.5C 359.978,208.238 361.311,208.571 362.5,209.5C 360.667,211.167 358.833,212.833 357,214.5C 355.579,211.378 353.913,211.044 352,213.5C 351.517,212.552 351.351,211.552 351.5,210.5C 349.833,210.5 348.167,210.5 346.5,210.5C 346.67,211.822 346.337,212.989 345.5,214C 347.085,218.313 347.919,222.813 348,227.5C 348.71,228.973 349.876,229.64 351.5,229.5C 351.5,230.833 351.5,232.167 351.5,233.5C 357.672,235.006 362.005,238.673 364.5,244.5C 360.576,242.088 356.242,240.421 351.5,239.5C 351.431,236.916 350.265,234.916 348,233.5C 347.055,229.886 346.388,226.219 346,222.5C 341.55,218.376 340.383,213.376 342.5,207.5C 344.844,206.449 346.511,204.782 347.5,202.5C 348.552,202.649 349.552,202.483 350.5,202C 352.793,197.102 356.626,194.268 362,193.5C 366.824,189.485 371.99,186.152 377.5,183.5 Z"/></g>
<g><path style="opacity:1" fill="#503e30" d="M 455.5,213.5 C 452.171,211.34 448.504,210.006 444.5,209.5C 443.001,208.506 441.334,208.506 439.5,209.5C 442.318,206.062 443.985,202.062 444.5,197.5C 445.881,198 446.547,199 446.5,200.5C 445.417,202.875 445.417,205.208 446.5,207.5C 450.14,209.042 453.973,209.709 458,209.5C 468.521,210.484 475.021,205.817 477.5,195.5C 480.833,193.748 482.499,194.748 482.5,198.5C 481.5,198.5 480.5,198.5 479.5,198.5C 476.199,210.772 468.199,215.772 455.5,213.5 Z"/></g>
<g><path style="opacity:1" fill="#644f3f" d="M 439.5,209.5 C 438.362,212.086 436.362,213.753 433.5,214.5C 431.973,214.427 430.973,215.094 430.5,216.5C 423.92,218.113 417.253,218.613 410.5,218C 406.833,215.667 403.167,213.333 399.5,211C 397.845,209.556 397.178,207.722 397.5,205.5C 395.712,205.785 394.045,205.452 392.5,204.5C 394.173,202.914 396.173,202.247 398.5,202.5C 398.34,204.199 398.506,205.866 399,207.5C 406.234,214.135 414.734,216.302 424.5,214C 429.576,212.649 434.576,211.149 439.5,209.5 Z"/></g>
<g><path style="opacity:1" fill="#ed8f97" d="M 444.5,209.5 C 447.142,210.895 449.809,212.395 452.5,214C 453.61,216.737 453.777,219.571 453,222.5C 445.355,231.026 438.688,230.359 433,220.5C 432.322,218.402 432.489,216.402 433.5,214.5C 436.362,213.753 438.362,212.086 439.5,209.5C 441.334,208.506 443.001,208.506 444.5,209.5 Z"/></g>
<g><path style="opacity:1" fill="#f7dec3" d="M 397.5,179.5 C 399.434,182.272 398.767,184.105 395.5,185C 395.833,185.333 396.167,185.667 396.5,186C 394.567,186.251 392.734,186.751 391,187.5C 387.629,186.093 384.129,185.593 380.5,186C 377.531,187.079 375.865,189.246 375.5,192.5C 374.675,193.386 373.675,193.719 372.5,193.5C 372.753,195.827 372.086,197.827 370.5,199.5C 367.787,200.905 365.121,202.405 362.5,204C 363,204.5 363.5,205 364,205.5C 364.811,204.04 365.645,203.707 366.5,204.5C 366.583,206.736 366.25,209.07 365.5,211.5C 363.929,213.415 361.929,214.415 359.5,214.5C 359.033,216.711 358.033,218.711 356.5,220.5C 354.958,221.747 353.458,221.747 352,220.5C 351.517,221.448 351.351,222.448 351.5,223.5C 352.5,223.5 353.5,223.5 354.5,223.5C 354.002,226.681 354.835,229.347 357,231.5C 358.171,229.384 359.671,228.718 361.5,229.5C 363.701,237.874 368.034,245.207 374.5,251.5C 374.167,251.5 373.833,251.5 373.5,251.5C 371.102,251.741 369.102,251.074 367.5,249.5C 366.791,248.596 365.791,248.263 364.5,248.5C 364.5,247.167 364.5,245.833 364.5,244.5C 362.005,238.673 357.672,235.006 351.5,233.5C 351.5,232.167 351.5,230.833 351.5,229.5C 349.876,229.64 348.71,228.973 348,227.5C 347.919,222.813 347.085,218.313 345.5,214C 346.337,212.989 346.67,211.822 346.5,210.5C 348.167,210.5 349.833,210.5 351.5,210.5C 351.351,211.552 351.517,212.552 352,213.5C 353.913,211.044 355.579,211.378 357,214.5C 358.833,212.833 360.667,211.167 362.5,209.5C 361.311,208.571 359.978,208.238 358.5,208.5C 358.663,206.143 358.497,203.81 358,201.5C 357.085,202.328 356.419,203.328 356,204.5C 354.77,203.725 354.437,202.725 355,201.5C 357.8,199.505 360.967,198.505 364.5,198.5C 364.5,197.5 364.5,196.5 364.5,195.5C 366.308,195.509 367.975,195.009 369.5,194C 372.054,190.38 374.721,186.88 377.5,183.5C 379.167,183.5 380.833,183.5 382.5,183.5C 385.376,184.803 388.376,185.303 391.5,185C 394.023,183.64 396.023,181.807 397.5,179.5 Z"/></g>
<g><path style="opacity:0.506" fill="#969782" d="M 303.5,223.5 C 288.867,222.002 274.2,221.502 259.5,222C 251.336,223.374 243.336,225.374 235.5,228C 233.884,228.615 232.551,229.615 231.5,231C 225.838,230.927 220.171,230.927 214.5,231C 212.423,232.705 210.09,233.872 207.5,234.5C 209.764,232.686 212.097,230.853 214.5,229C 219.851,228.737 225.184,228.737 230.5,229C 254.26,218.313 278.594,216.48 303.5,223.5 Z"/></g>
<g><path style="opacity:0.333" fill="#95927d" d="M 331.5,170.5 C 331.5,171.833 331.5,173.167 331.5,174.5C 330.21,175.058 329.377,176.058 329,177.5C 326.343,192.681 327.01,207.681 331,222.5C 332.773,226.545 334.94,230.378 337.5,234C 332.866,234.021 328.866,232.354 325.5,229C 318.058,227.084 310.724,225.251 303.5,223.5C 313.935,223.524 323.601,226.191 332.5,231.5C 332.833,231.167 333.167,230.833 333.5,230.5C 331.473,227.779 329.973,224.779 329,221.5C 325.177,207.659 324.51,193.659 327,179.5C 327.88,176.139 329.38,173.139 331.5,170.5 Z"/></g>
<g><path style="opacity:1" fill="#bc6869" d="M 444.5,209.5 C 448.504,210.006 452.171,211.34 455.5,213.5C 456.943,225.894 451.276,231.728 438.5,231C 433.564,227.437 430.897,222.603 430.5,216.5C 430.973,215.094 431.973,214.427 433.5,214.5C 432.489,216.402 432.322,218.402 433,220.5C 438.688,230.359 445.355,231.026 453,222.5C 453.777,219.571 453.61,216.737 452.5,214C 449.809,212.395 447.142,210.895 444.5,209.5 Z"/></g>
<g><path style="opacity:1" fill="#cfa083" d="M 347.5,202.5 C 346.511,204.782 344.844,206.449 342.5,207.5C 340.383,213.376 341.55,218.376 346,222.5C 346.388,226.219 347.055,229.886 348,233.5C 350.265,234.916 351.431,236.916 351.5,239.5C 356.242,240.421 360.576,242.088 364.5,244.5C 364.5,245.833 364.5,247.167 364.5,248.5C 365.791,248.263 366.791,248.596 367.5,249.5C 366.833,249.5 366.167,249.5 365.5,249.5C 359.79,246.638 353.956,243.972 348,241.5C 343.585,231.531 340.918,221.198 340,210.5C 340.573,208.359 341.406,206.359 342.5,204.5C 344.167,203.833 345.833,203.167 347.5,202.5 Z"/></g>
<g><path style="opacity:0.98" fill="#9d7c63" d="M 514.5,222.5 C 515.833,223.833 517.167,223.833 518.5,222.5C 516.784,233.374 511.284,241.707 502,247.5C 501.601,247.272 501.435,246.938 501.5,246.5C 503.64,243.835 506.14,241.502 509,239.5C 510.485,236.7 512.151,234.034 514,231.5C 514.498,228.518 514.665,225.518 514.5,222.5 Z"/></g>
<g><path style="opacity:1" fill="#d4864d" d="M 342.5,241.5 C 347.638,244.755 352.971,247.422 358.5,249.5C 357.761,249.369 357.094,249.536 356.5,250C 357.833,251.333 357.833,252.667 356.5,254C 349.793,253.707 346.96,256.874 348,263.5C 346.667,264.167 345.333,264.833 344,265.5C 343.695,267.557 343.695,269.557 344,271.5C 342.89,273.037 341.39,273.703 339.5,273.5C 339.579,274.93 339.246,276.264 338.5,277.5C 340.086,279.173 340.753,281.173 340.5,283.5C 339.167,283.5 337.833,283.5 336.5,283.5C 336.357,285.262 336.691,286.929 337.5,288.5C 336.05,289.85 335.383,291.516 335.5,293.5C 335.5,295.5 335.5,297.5 335.5,299.5C 331.653,299.619 327.986,298.953 324.5,297.5C 323.718,303.616 326.385,306.616 332.5,306.5C 331.833,308.833 331.167,311.167 330.5,313.5C 331.5,313.5 332.5,313.5 333.5,313.5C 333.106,314.967 332.773,316.467 332.5,318C 332.684,319.376 333.351,320.209 334.5,320.5C 334.427,322.027 335.094,323.027 336.5,323.5C 335.641,327.882 334.474,332.215 333,336.5C 332.831,348.007 332.331,359.341 331.5,370.5C 331.978,367.722 330.978,365.722 328.5,364.5C 327.571,363.311 327.238,361.978 327.5,360.5C 328.5,360.5 329.5,360.5 330.5,360.5C 329.595,357.785 329.262,355.119 329.5,352.5C 327.27,352.292 325.104,352.292 323,352.5C 322.812,350.939 323.645,350.272 325.5,350.5C 326.916,348.14 326.583,346.14 324.5,344.5C 323.808,345.025 323.308,345.692 323,346.5C 322.289,344.633 322.789,343.133 324.5,342C 323.583,338.159 322.25,337.826 320.5,341C 319.207,341.49 317.873,341.657 316.5,341.5C 316.5,339.167 316.5,336.833 316.5,334.5C 317.5,334.5 318.5,334.5 319.5,334.5C 319.993,332.194 320.326,329.861 320.5,327.5C 318.833,327.5 317.167,327.5 315.5,327.5C 315.662,329.527 315.495,331.527 315,333.5C 313.542,332.253 312.042,332.253 310.5,333.5C 309.327,330.721 307.493,330.054 305,331.5C 302.004,329.086 299.504,326.253 297.5,323C 294.625,321.698 291.625,320.865 288.5,320.5C 288.5,319.5 288.5,318.5 288.5,317.5C 282.348,317.088 276.014,316.088 269.5,314.5C 269.5,316.167 269.5,317.833 269.5,319.5C 267.856,319.286 266.356,319.62 265,320.5C 264.692,319.692 264.192,319.025 263.5,318.5C 262.402,319.615 261.235,319.615 260,318.5C 259.5,318.833 259,319.167 258.5,319.5C 259.811,320.258 260.311,321.258 260,322.5C 258,321.167 256,321.167 254,322.5C 253.202,319.761 251.535,317.761 249,316.5C 248.374,318.991 247.541,318.991 246.5,316.5C 245.914,316.709 245.414,317.043 245,317.5C 244.835,312.807 242.668,311.14 238.5,312.5C 238.67,305.675 239.67,299.008 241.5,292.5C 239.139,292.674 236.806,293.007 234.5,293.5C 233.655,297.264 231.988,300.598 229.5,303.5C 229.747,304.713 230.414,305.38 231.5,305.5C 229.58,310.778 227.913,316.111 226.5,321.5C 227.285,329.43 228.951,337.096 231.5,344.5C 227.809,356.999 227.976,369.332 232,381.5C 233.243,385.194 235.41,388.194 238.5,390.5C 236.511,389.519 234.511,388.519 232.5,387.5C 226.853,393.411 224.353,392.078 225,383.5C 222.754,378.64 220.587,373.807 218.5,369C 219.061,367.434 218.394,366.101 216.5,365C 214.633,364.289 213.133,364.789 212,366.5C 211.982,368.797 212.149,371.131 212.5,373.5C 211.4,371.723 210.566,369.723 210,367.5C 209.146,360.476 208.146,353.476 207,346.5C 203.405,338.627 201.405,330.293 201,321.5C 199.54,318.252 198.374,314.919 197.5,311.5C 199.044,311.297 200.378,310.63 201.5,309.5C 203.566,298.695 206.233,288.028 209.5,277.5C 211.568,273.705 213.901,270.039 216.5,266.5C 217.675,266.719 218.675,266.386 219.5,265.5C 221.863,262.511 223.863,259.344 225.5,256C 228.748,255.918 231.081,254.418 232.5,251.5C 240.483,248.081 248.816,245.414 257.5,243.5C 261.365,244.806 265.198,244.806 269,243.5C 270.491,245.004 272.324,245.837 274.5,246C 273.353,248.085 274.02,249.585 276.5,250.5C 293.097,249.328 309.93,249.328 327,250.5C 331.66,249.901 336.16,248.901 340.5,247.5C 340.614,245.282 341.28,243.282 342.5,241.5 Z"/></g>
<g><path style="opacity:1" fill="#d98d4a" d="M 337.5,238.5 C 339.001,239.752 340.668,240.752 342.5,241.5C 341.28,243.282 340.614,245.282 340.5,247.5C 336.16,248.901 331.66,249.901 327,250.5C 309.93,249.328 293.097,249.328 276.5,250.5C 274.02,249.585 273.353,248.085 274.5,246C 272.324,245.837 270.491,245.004 269,243.5C 265.198,244.806 261.365,244.806 257.5,243.5C 248.816,245.414 240.483,248.081 232.5,251.5C 231.081,254.418 228.748,255.918 225.5,256C 223.863,259.344 221.863,262.511 219.5,265.5C 218.675,266.386 217.675,266.719 216.5,266.5C 218.694,264.779 219.861,262.445 220,259.5C 223.508,256.325 226.675,252.825 229.5,249C 235.56,248.767 240.56,246.601 244.5,242.5C 247.151,241.289 249.818,239.955 252.5,238.5C 254.696,238.59 256.863,238.923 259,239.5C 262.4,238.311 265.9,237.645 269.5,237.5C 275.241,239.041 280.907,239.708 286.5,239.5C 286.36,241.124 287.027,242.29 288.5,243C 291.099,243.769 293.599,243.602 296,242.5C 297.851,244.781 299.518,244.781 301,242.5C 302.824,243.749 302.657,244.915 300.5,246C 302.899,246.711 305.232,246.544 307.5,245.5C 310.807,247.684 314.307,248.017 318,246.5C 321.783,247.628 325.449,248.295 329,248.5C 333.281,247.56 336.781,245.393 339.5,242C 338.027,241.29 337.36,240.124 337.5,238.5 Z"/></g>
<g><path style="opacity:0.09" fill="#8f9285" d="M 525.5,166.5 C 522.417,167.066 519.417,167.066 516.5,166.5C 514.77,167.026 513.436,168.026 512.5,169.5C 514.301,174.069 515.801,178.735 517,183.5C 517.068,189.994 518.068,196.327 520,202.5C 522.456,216.487 520.122,229.487 513,241.5C 503.771,250.205 492.937,256.205 480.5,259.5C 482.19,262.024 484.357,264.024 487,265.5C 489.109,268.293 488.942,270.959 486.5,273.5C 486.863,274.183 487.196,274.85 487.5,275.5C 483.009,274.87 482.509,273.204 486,270.5C 486.667,269.167 486.667,267.833 486,266.5C 482.87,264.372 480.037,261.872 477.5,259C 480.963,256.426 484.963,255.093 489.5,255C 491.266,253.302 493.266,251.969 495.5,251C 494.906,250.536 494.239,250.369 493.5,250.5C 496.527,250.014 499.193,248.68 501.5,246.5C 501.435,246.938 501.601,247.272 502,247.5C 511.284,241.707 516.784,233.374 518.5,222.5C 518.684,204.604 516.35,187.104 511.5,170C 511.439,168.289 512.106,166.956 513.5,166C 517.689,165.188 521.689,165.355 525.5,166.5 Z"/></g>
<g><path style="opacity:1" fill="#e3cebe" d="M 502.5,194.5 C 503.167,195.5 503.833,196.5 504.5,197.5C 506.142,198.803 507.809,200.136 509.5,201.5C 508.512,206.194 508.512,210.694 509.5,215C 510.667,217.646 512.001,220.146 513.5,222.5C 513.833,222.5 514.167,222.5 514.5,222.5C 514.665,225.518 514.498,228.518 514,231.5C 512.151,234.034 510.485,236.7 509,239.5C 506.14,241.502 503.64,243.835 501.5,246.5C 499.193,248.68 496.527,250.014 493.5,250.5C 480.373,253.515 467.04,255.515 453.5,256.5C 454.609,255.71 455.942,255.21 457.5,255C 454.196,253.715 453.53,251.548 455.5,248.5C 458.518,248.296 461.518,247.963 464.5,247.5C 464.5,246.5 464.5,245.5 464.5,244.5C 468.58,242.899 472.58,242.232 476.5,242.5C 476.343,241.127 476.51,239.793 477,238.5C 477.667,239.833 478.333,239.833 479,238.5C 481.991,232.833 485.824,228.999 490.5,227C 491.191,225.933 491.691,224.766 492,223.5C 492.333,224.5 492.667,225.5 493,226.5C 494.122,224.376 495.622,222.543 497.5,221C 497.034,219.701 497.034,218.201 497.5,216.5C 501.387,216.447 504.054,214.614 505.5,211C 505.555,205.369 504.555,199.869 502.5,194.5 Z"/></g>
<g><path style="opacity:1" fill="#f5a55d" d="M 248.5,228.5 C 246.91,230.234 244.91,231.4 242.5,232C 241.663,233.011 241.33,234.178 241.5,235.5C 236.778,235.861 232.444,237.361 228.5,240C 229.38,241.356 229.714,242.856 229.5,244.5C 234.638,244.566 239.638,243.9 244.5,242.5C 240.56,246.601 235.56,248.767 229.5,249C 226.675,252.825 223.508,256.325 220,259.5C 219.861,262.445 218.694,264.779 216.5,266.5C 213.901,270.039 211.568,273.705 209.5,277.5C 206.233,288.028 203.566,298.695 201.5,309.5C 200.378,310.63 199.044,311.297 197.5,311.5C 193.26,279.711 203.926,254.211 229.5,235C 235.398,231.756 241.731,229.589 248.5,228.5 Z"/></g>
<g><path style="opacity:1" fill="#ecd8c6" d="M 373.5,251.5 C 373.833,251.5 374.167,251.5 374.5,251.5C 378.415,252.267 382.415,252.767 386.5,253C 387.939,253.991 388.939,255.324 389.5,257C 395.622,260.086 401.788,260.253 408,257.5C 408.414,257.957 408.914,258.291 409.5,258.5C 410.797,256.633 412.297,256.3 414,257.5C 417.068,255.868 420.234,254.535 423.5,253.5C 425.821,254.06 427.821,255.06 429.5,256.5C 427.143,256.337 424.81,256.503 422.5,257C 424.044,257.29 425.377,257.956 426.5,259C 424.191,259.756 422.191,259.256 420.5,257.5C 415.808,260.469 410.808,261.135 405.5,259.5C 402.937,259.737 402.937,260.237 405.5,261C 401.428,261.267 397.428,260.767 393.5,259.5C 392.094,260.668 390.928,260.335 390,258.5C 388.209,260.513 386.875,260.513 386,258.5C 385.546,260.536 384.713,262.37 383.5,264C 385.916,265.474 386.916,267.64 386.5,270.5C 387.93,270.421 389.264,270.754 390.5,271.5C 391.696,271.154 391.696,270.654 390.5,270C 391.449,269.383 392.282,269.549 393,270.5C 393.718,267.766 395.218,267.1 397.5,268.5C 394.926,271.314 395.426,273.647 399,275.5C 399.414,275.043 399.914,274.709 400.5,274.5C 403.156,276.166 405.823,277.832 408.5,279.5C 411.758,278.583 415.091,278.249 418.5,278.5C 417.769,280.599 417.769,282.599 418.5,284.5C 421.929,284.95 425.262,286.116 428.5,288C 426.939,288.941 425.605,290.108 424.5,291.5C 424.833,291.833 425.167,292.167 425.5,292.5C 426.5,291.833 427.5,291.167 428.5,290.5C 429.848,292.611 429.515,294.445 427.5,296C 429.939,297.61 432.606,298.444 435.5,298.5C 434.193,302.454 431.526,303.454 427.5,301.5C 426.702,301.957 426.369,302.624 426.5,303.5C 425.619,301.696 424.286,300.196 422.5,299C 421.216,298.316 420.049,298.483 419,299.5C 417.595,297.809 416.428,295.976 415.5,294C 411.848,293.501 408.182,293.335 404.5,293.5C 404.33,292.178 404.663,291.011 405.5,290C 402.876,289.424 402.209,288.09 403.5,286C 400.022,282.501 396.022,280.001 391.5,278.5C 392.609,277.71 393.942,277.21 395.5,277C 392.779,276.398 390.113,276.565 387.5,277.5C 385.444,272.943 382.444,269.109 378.5,266C 376.04,265.604 374.04,264.437 372.5,262.5C 371.833,262.833 371.167,263.167 370.5,263.5C 368.947,261.735 368.614,259.902 369.5,258C 367.42,257.211 365.586,256.044 364,254.5C 360.459,255.426 356.959,256.426 353.5,257.5C 357.056,255.137 360.889,253.137 365,251.5C 367.501,251.584 369.834,252.25 372,253.5C 373.03,253.164 373.53,252.497 373.5,251.5 Z"/></g>
<g><path style="opacity:1" fill="#fcead2" d="M 387.5,277.5 C 384.947,283.214 386.781,286.548 393,287.5C 394.28,287.387 395.113,286.72 395.5,285.5C 393.577,284.692 391.577,284.192 389.5,284C 388.066,281.472 388.733,279.638 391.5,278.5C 396.022,280.001 400.022,282.501 403.5,286C 402.209,288.09 402.876,289.424 405.5,290C 404.663,291.011 404.33,292.178 404.5,293.5C 408.182,293.335 411.848,293.501 415.5,294C 416.428,295.976 417.595,297.809 419,299.5C 420.049,298.483 421.216,298.316 422.5,299C 424.286,300.196 425.619,301.696 426.5,303.5C 428.969,304.607 429.969,306.607 429.5,309.5C 426.428,309.183 423.428,309.516 420.5,310.5C 427.715,314.682 431.382,312.682 431.5,304.5C 433.5,304.167 435.5,303.833 437.5,303.5C 437.783,304.289 438.283,304.956 439,305.5C 439.804,304.196 440.971,303.529 442.5,303.5C 445.945,303.945 449.278,303.945 452.5,303.5C 453.615,305.715 455.948,306.715 459.5,306.5C 459.5,307.5 459.5,308.5 459.5,309.5C 463.172,309.183 464.838,310.849 464.5,314.5C 468.985,313.848 470.652,315.515 469.5,319.5C 471.396,320.466 473.396,320.799 475.5,320.5C 475.5,319.167 475.5,317.833 475.5,316.5C 478.574,316.127 481.574,315.461 484.5,314.5C 484.5,319.5 484.5,324.5 484.5,329.5C 482.141,341.828 478.975,353.828 475,365.5C 468.191,377.809 459.691,388.809 449.5,398.5C 442.961,402.052 435.961,403.885 428.5,404C 425.968,404.619 423.635,405.619 421.5,407C 405.025,407.211 389.359,410.378 374.5,416.5C 373.308,417.566 373.641,418.399 375.5,419C 372.926,421.801 372.926,424.635 375.5,427.5C 378.251,427.955 380.418,429.289 382,431.5C 382.176,435.688 382.676,439.688 383.5,443.5C 386.807,446.353 388.474,450.019 388.5,454.5C 382.003,457.317 378.503,455.317 378,448.5C 377.311,447.643 376.478,446.977 375.5,446.5C 375.288,449.652 375.288,452.985 375.5,456.5C 372.833,456.5 370.167,456.5 367.5,456.5C 366.949,453.193 366.616,449.86 366.5,446.5C 365.325,446.281 364.325,446.614 363.5,447.5C 365.705,457.465 362.371,459.965 353.5,455C 354.059,454.275 354.392,453.442 354.5,452.5C 350.097,441.561 346.931,430.228 345,418.5C 342.295,417.245 340.462,415.245 339.5,412.5C 339.919,411.328 340.585,410.328 341.5,409.5C 340.123,407.711 339.123,405.711 338.5,403.5C 340.003,402.948 341.669,402.948 343.5,403.5C 343.337,401.143 343.503,398.81 344,396.5C 344.583,398.002 345.416,399.335 346.5,400.5C 347.568,398.813 347.401,397.146 346,395.5C 345.163,393.993 343.996,393.493 342.5,394C 340.771,395.789 340.104,397.956 340.5,400.5C 338.833,400.5 337.167,400.5 335.5,400.5C 335.325,402.621 335.659,404.621 336.5,406.5C 335.577,407.303 334.577,407.47 333.5,407C 332.5,404.667 330.833,403 328.5,402C 328.833,401.667 329.167,401.333 329.5,401C 327.536,400.376 325.869,400.876 324.5,402.5C 321.978,398.407 318.311,396.74 313.5,397.5C 313.5,396.5 313.5,395.5 313.5,394.5C 310.202,394.984 307.536,393.984 305.5,391.5C 297.334,390.325 289.667,387.158 282.5,382C 280.739,377.421 277.406,375.588 272.5,376.5C 272.804,375.85 273.137,375.183 273.5,374.5C 271.448,373.389 270.114,371.723 269.5,369.5C 270.416,369.018 271.416,368.685 272.5,368.5C 276.578,370.504 280.578,372.504 284.5,374.5C 289.801,375.515 295.134,376.348 300.5,377C 308.008,381.9 316.341,384.233 325.5,384C 327.741,385.522 330.074,386.855 332.5,388C 336.615,388.907 339.949,387.74 342.5,384.5C 342.192,383.692 341.692,383.025 341,382.5C 340.801,375.736 339.968,369.069 338.5,362.5C 338.716,360.616 339.383,358.949 340.5,357.5C 339.2,352.479 339.367,347.479 341,342.5C 341.833,341.667 342.667,340.833 343.5,340C 342.576,339.15 342.576,338.15 343.5,337C 344.384,335.902 345.384,335.402 346.5,335.5C 345.395,334.108 344.061,332.941 342.5,332C 346.668,327.867 346.334,324.201 341.5,321C 341.957,320.586 342.291,320.086 342.5,319.5C 339.299,317.738 336.299,315.738 333.5,313.5C 332.5,313.5 331.5,313.5 330.5,313.5C 331.167,311.167 331.833,308.833 332.5,306.5C 335.12,305.131 337.787,303.631 340.5,302C 339.941,301.275 339.608,300.442 339.5,299.5C 342.392,295.524 343.058,291.524 341.5,287.5C 343.325,284.123 343.992,280.457 343.5,276.5C 345.75,276.819 347.75,276.319 349.5,275C 348.366,273.984 348.699,273.317 350.5,273C 350.043,272.586 349.709,272.086 349.5,271.5C 350.189,269.556 350.689,267.556 351,265.5C 352.572,267.563 354.405,268.229 356.5,267.5C 355.758,266.713 354.925,266.047 354,265.5C 353.503,262.854 353.336,260.187 353.5,257.5C 356.959,256.426 360.459,255.426 364,254.5C 365.586,256.044 367.42,257.211 369.5,258C 368.614,259.902 368.947,261.735 370.5,263.5C 371.167,263.167 371.833,262.833 372.5,262.5C 374.04,264.437 376.04,265.604 378.5,266C 382.444,269.109 385.444,272.943 387.5,277.5 Z"/></g>
<g><path style="opacity:1" fill="#b4815d" d="M 358.5,249.5 C 360.941,250.756 363.274,250.756 365.5,249.5C 366.167,249.5 366.833,249.5 367.5,249.5C 369.102,251.074 371.102,251.741 373.5,251.5C 373.53,252.497 373.03,253.164 372,253.5C 369.834,252.25 367.501,251.584 365,251.5C 360.889,253.137 357.056,255.137 353.5,257.5C 350.401,258.287 349.734,260.121 351.5,263C 349.672,264.663 348.005,266.496 346.5,268.5C 347.309,270.071 347.643,271.738 347.5,273.5C 345.064,273.317 342.897,273.984 341,275.5C 341.446,278.438 341.946,281.438 342.5,284.5C 341.5,284.5 340.5,284.5 339.5,284.5C 341.228,288.72 339.895,291.72 335.5,293.5C 335.383,291.516 336.05,289.85 337.5,288.5C 336.691,286.929 336.357,285.262 336.5,283.5C 337.833,283.5 339.167,283.5 340.5,283.5C 340.753,281.173 340.086,279.173 338.5,277.5C 339.246,276.264 339.579,274.93 339.5,273.5C 341.39,273.703 342.89,273.037 344,271.5C 343.695,269.557 343.695,267.557 344,265.5C 345.333,264.833 346.667,264.167 348,263.5C 346.96,256.874 349.793,253.707 356.5,254C 357.833,252.667 357.833,251.333 356.5,250C 357.094,249.536 357.761,249.369 358.5,249.5 Z"/></g>
<g><path style="opacity:1" fill="#ddc9bb" d="M 429.5,256.5 C 435.833,256.5 442.167,256.5 448.5,256.5C 442.013,257.328 435.346,257.828 428.5,258C 436.766,259.242 445.099,260.076 453.5,260.5C 461.152,259.519 468.819,259.353 476.5,260C 479.069,262.453 481.402,265.12 483.5,268C 482.66,269.767 481.327,271.101 479.5,272C 482.313,275.647 485.313,279.147 488.5,282.5C 488.023,283.478 487.357,284.311 486.5,285C 484.19,285.497 481.857,285.663 479.5,285.5C 481.684,293.135 483.684,300.801 485.5,308.5C 481.755,306.647 478.088,304.647 474.5,302.5C 473.5,303.833 472.5,303.833 471.5,302.5C 470.185,304.316 468.685,305.983 467,307.5C 465.731,306.095 465.231,304.429 465.5,302.5C 462.373,302.514 459.707,301.514 457.5,299.5C 454.919,301.268 453.253,300.601 452.5,297.5C 449.274,296.444 446.274,294.944 443.5,293C 442.072,292.421 440.738,292.588 439.5,293.5C 440.536,291.609 440.536,289.776 439.5,288C 436.298,286.517 432.964,286.183 429.5,287C 431.937,288.375 434.603,288.875 437.5,288.5C 437.597,292.642 435.597,294.976 431.5,295.5C 432.901,296.521 434.235,297.521 435.5,298.5C 432.606,298.444 429.939,297.61 427.5,296C 429.515,294.445 429.848,292.611 428.5,290.5C 427.5,291.167 426.5,291.833 425.5,292.5C 425.167,292.167 424.833,291.833 424.5,291.5C 425.605,290.108 426.939,288.941 428.5,288C 425.262,286.116 421.929,284.95 418.5,284.5C 417.769,282.599 417.769,280.599 418.5,278.5C 415.091,278.249 411.758,278.583 408.5,279.5C 405.823,277.832 403.156,276.166 400.5,274.5C 399.914,274.709 399.414,275.043 399,275.5C 395.426,273.647 394.926,271.314 397.5,268.5C 395.218,267.1 393.718,267.766 393,270.5C 392.282,269.549 391.449,269.383 390.5,270C 391.696,270.654 391.696,271.154 390.5,271.5C 389.264,270.754 387.93,270.421 386.5,270.5C 386.916,267.64 385.916,265.474 383.5,264C 384.713,262.37 385.546,260.536 386,258.5C 386.875,260.513 388.209,260.513 390,258.5C 390.928,260.335 392.094,260.668 393.5,259.5C 397.428,260.767 401.428,261.267 405.5,261C 402.937,260.237 402.937,259.737 405.5,259.5C 410.808,261.135 415.808,260.469 420.5,257.5C 422.191,259.256 424.191,259.756 426.5,259C 425.377,257.956 424.044,257.29 422.5,257C 424.81,256.503 427.143,256.337 429.5,256.5 Z"/></g>
<g><path style="opacity:1" fill="#a98c7c" d="M 432.5,267.5 C 438.204,267.146 440.037,269.813 438,275.5C 437.101,277.327 435.767,278.66 434,279.5C 433.5,279.167 433,278.833 432.5,278.5C 435.199,276.102 436.533,273.102 436.5,269.5C 432.772,270.71 429.105,271.877 425.5,273C 428.02,271.303 430.353,269.47 432.5,267.5 Z"/></g>
<g><path style="opacity:1" fill="#b39a85" d="M 391.5,278.5 C 388.733,279.638 388.066,281.472 389.5,284C 391.577,284.192 393.577,284.692 395.5,285.5C 395.113,286.72 394.28,287.387 393,287.5C 386.781,286.548 384.947,283.214 387.5,277.5C 390.113,276.565 392.779,276.398 395.5,277C 393.942,277.21 392.609,277.71 391.5,278.5 Z"/></g>
<g><path style="opacity:1" fill="#b79c8a" d="M 439.5,293.5 C 435.931,295.146 435.598,297.312 438.5,300C 438.011,301.138 437.678,302.305 437.5,303.5C 435.5,303.833 433.5,304.167 431.5,304.5C 431.382,312.682 427.715,314.682 420.5,310.5C 423.428,309.516 426.428,309.183 429.5,309.5C 429.969,306.607 428.969,304.607 426.5,303.5C 426.369,302.624 426.702,301.957 427.5,301.5C 431.526,303.454 434.193,302.454 435.5,298.5C 434.235,297.521 432.901,296.521 431.5,295.5C 435.597,294.976 437.597,292.642 437.5,288.5C 434.603,288.875 431.937,288.375 429.5,287C 432.964,286.183 436.298,286.517 439.5,288C 440.536,289.776 440.536,291.609 439.5,293.5 Z"/></g>
<g><path style="opacity:1" fill="#c2ac95" d="M 393.5,290.5 C 394.675,290.281 395.675,290.614 396.5,291.5C 394.833,292.5 393.5,293.833 392.5,295.5C 394.576,296.1 396.576,296.433 398.5,296.5C 390.204,299.874 388.538,297.874 393.5,290.5 Z"/></g>
<g><path style="opacity:1" fill="#f3d8ba" d="M 353.5,257.5 C 353.336,260.187 353.503,262.854 354,265.5C 354.925,266.047 355.758,266.713 356.5,267.5C 354.405,268.229 352.572,267.563 351,265.5C 350.689,267.556 350.189,269.556 349.5,271.5C 349.709,272.086 350.043,272.586 350.5,273C 348.699,273.317 348.366,273.984 349.5,275C 347.75,276.319 345.75,276.819 343.5,276.5C 343.992,280.457 343.325,284.123 341.5,287.5C 343.058,291.524 342.392,295.524 339.5,299.5C 339.608,300.442 339.941,301.275 340.5,302C 337.787,303.631 335.12,305.131 332.5,306.5C 326.385,306.616 323.718,303.616 324.5,297.5C 327.986,298.953 331.653,299.619 335.5,299.5C 335.5,297.5 335.5,295.5 335.5,293.5C 339.895,291.72 341.228,288.72 339.5,284.5C 340.5,284.5 341.5,284.5 342.5,284.5C 341.946,281.438 341.446,278.438 341,275.5C 342.897,273.984 345.064,273.317 347.5,273.5C 347.643,271.738 347.309,270.071 346.5,268.5C 348.005,266.496 349.672,264.663 351.5,263C 349.734,260.121 350.401,258.287 353.5,257.5 Z"/></g>
<g><path style="opacity:1" fill="#f19e5a" d="M 238.5,312.5 C 237.161,316.354 236.328,320.354 236,324.5C 234.67,325.582 233.17,326.249 231.5,326.5C 229.502,322.477 229.002,318.144 230,313.5C 231.068,309.681 232.568,306.014 234.5,302.5C 234.167,302.167 233.833,301.833 233.5,301.5C 232.638,302.766 231.971,304.099 231.5,305.5C 230.414,305.38 229.747,304.713 229.5,303.5C 231.988,300.598 233.655,297.264 234.5,293.5C 236.806,293.007 239.139,292.674 241.5,292.5C 239.67,299.008 238.67,305.675 238.5,312.5 Z"/></g>
<g><path style="opacity:1" fill="#ebd8c8" d="M 485.5,308.5 C 485.825,315.687 485.491,322.687 484.5,329.5C 484.5,324.5 484.5,319.5 484.5,314.5C 481.574,315.461 478.574,316.127 475.5,316.5C 475.5,317.833 475.5,319.167 475.5,320.5C 473.396,320.799 471.396,320.466 469.5,319.5C 470.652,315.515 468.985,313.848 464.5,314.5C 464.838,310.849 463.172,309.183 459.5,309.5C 459.5,308.5 459.5,307.5 459.5,306.5C 455.948,306.715 453.615,305.715 452.5,303.5C 449.278,303.945 445.945,303.945 442.5,303.5C 440.971,303.529 439.804,304.196 439,305.5C 438.283,304.956 437.783,304.289 437.5,303.5C 437.678,302.305 438.011,301.138 438.5,300C 435.598,297.312 435.931,295.146 439.5,293.5C 440.738,292.588 442.072,292.421 443.5,293C 446.274,294.944 449.274,296.444 452.5,297.5C 453.253,300.601 454.919,301.268 457.5,299.5C 459.707,301.514 462.373,302.514 465.5,302.5C 465.231,304.429 465.731,306.095 467,307.5C 468.685,305.983 470.185,304.316 471.5,302.5C 472.5,303.833 473.5,303.833 474.5,302.5C 478.088,304.647 481.755,306.647 485.5,308.5 Z"/></g>
<g><path style="opacity:1" fill="#ce7f48" d="M 331.5,370.5 C 331.083,371.124 330.416,371.457 329.5,371.5C 325.604,370.267 321.604,369.433 317.5,369C 315.129,367.594 313.462,365.594 312.5,363C 301.458,364.265 292.125,361.099 284.5,353.5C 281.628,352.217 278.795,352.217 276,353.5C 276.135,355.425 276.302,357.425 276.5,359.5C 273.415,359.458 271.081,358.125 269.5,355.5C 267.689,356.736 265.856,356.736 264,355.5C 260.529,352.743 257.029,350.076 253.5,347.5C 250.065,342.744 247.065,337.744 244.5,332.5C 242.576,332.567 240.576,332.9 238.5,333.5C 236.454,335.782 235.454,338.449 235.5,341.5C 234.207,340.158 233.374,338.491 233,336.5C 232.661,333.12 232.161,329.787 231.5,326.5C 233.17,326.249 234.67,325.582 236,324.5C 236.328,320.354 237.161,316.354 238.5,312.5C 242.668,311.14 244.835,312.807 245,317.5C 245.414,317.043 245.914,316.709 246.5,316.5C 247.541,318.991 248.374,318.991 249,316.5C 251.535,317.761 253.202,319.761 254,322.5C 256,321.167 258,321.167 260,322.5C 260.311,321.258 259.811,320.258 258.5,319.5C 259,319.167 259.5,318.833 260,318.5C 261.235,319.615 262.402,319.615 263.5,318.5C 264.192,319.025 264.692,319.692 265,320.5C 266.356,319.62 267.856,319.286 269.5,319.5C 269.5,317.833 269.5,316.167 269.5,314.5C 276.014,316.088 282.348,317.088 288.5,317.5C 288.5,318.5 288.5,319.5 288.5,320.5C 291.625,320.865 294.625,321.698 297.5,323C 299.504,326.253 302.004,329.086 305,331.5C 307.493,330.054 309.327,330.721 310.5,333.5C 312.042,332.253 313.542,332.253 315,333.5C 315.495,331.527 315.662,329.527 315.5,327.5C 317.167,327.5 318.833,327.5 320.5,327.5C 320.326,329.861 319.993,332.194 319.5,334.5C 318.5,334.5 317.5,334.5 316.5,334.5C 316.5,336.833 316.5,339.167 316.5,341.5C 317.873,341.657 319.207,341.49 320.5,341C 322.25,337.826 323.583,338.159 324.5,342C 322.789,343.133 322.289,344.633 323,346.5C 323.308,345.692 323.808,345.025 324.5,344.5C 326.583,346.14 326.916,348.14 325.5,350.5C 323.645,350.272 322.812,350.939 323,352.5C 325.104,352.292 327.27,352.292 329.5,352.5C 329.262,355.119 329.595,357.785 330.5,360.5C 329.5,360.5 328.5,360.5 327.5,360.5C 327.238,361.978 327.571,363.311 328.5,364.5C 330.978,365.722 331.978,367.722 331.5,370.5 Z"/></g>
<g><path style="opacity:0.612" fill="#8e988f" d="M 489.5,277.5 C 495.175,284.033 493.508,288.199 484.5,290C 485.965,296.885 487.799,303.718 490,310.5C 490.667,316.5 490.667,322.5 490,328.5C 486.63,342.349 482.63,356.016 478,369.5C 474.667,374.833 471.333,380.167 468,385.5C 466.027,393.751 462.693,401.418 458,408.5C 456.202,414.895 454.202,421.228 452,427.5C 450.465,436.274 451.965,444.441 456.5,452C 456.101,453.728 455.434,455.228 454.5,456.5C 455.03,451.713 453.863,447.38 451,443.5C 450.333,437.5 450.333,431.5 451,425.5C 453.423,418.966 455.423,412.299 457,405.5C 462.13,398.297 465.63,390.297 467.5,381.5C 474.385,374.605 478.052,366.272 478.5,356.5C 479.5,356.5 480.5,356.5 481.5,356.5C 482.39,347.135 484.557,338.135 488,329.5C 488.667,322.833 488.667,316.167 488,309.5C 485.326,302.466 483.826,295.132 483.5,287.5C 486.33,287.306 488.996,286.639 491.5,285.5C 491.306,282.67 490.639,280.004 489.5,277.5 Z"/></g>
<g><path style="opacity:0.176" fill="#93927d" d="M 206.5,234.5 C 206.567,235.959 206.234,237.292 205.5,238.5C 203.962,241.887 202.128,245.22 200,248.5C 200.292,259.139 198.959,269.472 196,279.5C 193.651,282.699 192.484,286.365 192.5,290.5C 193.257,299.173 194.09,307.84 195,316.5C 198.742,323.645 200.742,331.312 201,339.5C 202.275,341.717 203.275,344.051 204,346.5C 205.28,357.856 207.947,368.856 212,379.5C 212.498,382.482 212.665,385.482 212.5,388.5C 213.021,392.481 213.354,396.481 213.5,400.5C 213.167,400.5 212.833,400.5 212.5,400.5C 211.669,394.176 210.835,387.843 210,381.5C 205.329,361.472 200.662,341.472 196,321.5C 192.414,313.238 190.914,304.571 191.5,295.5C 190.954,286.017 192.787,277.017 197,268.5C 197.333,261.833 197.667,255.167 198,248.5C 199.071,242.678 201.905,238.012 206.5,234.5 Z"/></g>
<g><path style="opacity:1" fill="#d29e79" d="M 253.5,347.5 C 253.629,349.216 253.962,350.883 254.5,352.5C 253.1,351.9 252.1,350.9 251.5,349.5C 250.596,348.791 250.263,347.791 250.5,346.5C 246.777,346.223 244.444,347.89 243.5,351.5C 245.192,354.701 246.526,358.035 247.5,361.5C 244.741,358.779 242.241,355.779 240,352.5C 238.509,348.848 237.009,345.181 235.5,341.5C 235.454,338.449 236.454,335.782 238.5,333.5C 240.576,332.9 242.576,332.567 244.5,332.5C 247.065,337.744 250.065,342.744 253.5,347.5 Z"/></g>
<g><path style="opacity:0.994" fill="#a86733" d="M 331.5,174.5 C 330.22,183.804 330.22,193.137 331.5,202.5C 332.645,201.224 332.645,199.891 331.5,198.5C 332.463,196.51 333.796,196.177 335.5,197.5C 334.948,199.003 334.948,200.669 335.5,202.5C 337.5,202.833 339.5,203.167 341.5,203.5C 341.216,201.585 341.549,199.919 342.5,198.5C 343.275,200.388 343.275,202.388 342.5,204.5C 341.406,206.359 340.573,208.359 340,210.5C 340.918,221.198 343.585,231.531 348,241.5C 353.956,243.972 359.79,246.638 365.5,249.5C 363.274,250.756 360.941,250.756 358.5,249.5C 352.971,247.422 347.638,244.755 342.5,241.5C 340.668,240.752 339.001,239.752 337.5,238.5C 332.557,236.589 327.89,234.089 323.5,231C 303.009,227.077 282.342,225.077 261.5,225C 256.958,225.867 252.625,227.033 248.5,228.5C 241.731,229.589 235.398,231.756 229.5,235C 203.926,254.211 193.26,279.711 197.5,311.5C 198.374,314.919 199.54,318.252 201,321.5C 201.405,330.293 203.405,338.627 207,346.5C 208.146,353.476 209.146,360.476 210,367.5C 210.566,369.723 211.4,371.723 212.5,373.5C 212.433,374.959 212.766,376.292 213.5,377.5C 214.295,381.785 214.628,386.119 214.5,390.5C 213.833,389.833 213.167,389.167 212.5,388.5C 212.665,385.482 212.498,382.482 212,379.5C 207.947,368.856 205.28,357.856 204,346.5C 203.275,344.051 202.275,341.717 201,339.5C 200.742,331.312 198.742,323.645 195,316.5C 194.09,307.84 193.257,299.173 192.5,290.5C 192.484,286.365 193.651,282.699 196,279.5C 198.959,269.472 200.292,259.139 200,248.5C 202.128,245.22 203.962,241.887 205.5,238.5C 206.234,237.292 206.567,235.959 206.5,234.5C 206.833,234.5 207.167,234.5 207.5,234.5C 210.09,233.872 212.423,232.705 214.5,231C 220.171,230.927 225.838,230.927 231.5,231C 232.551,229.615 233.884,228.615 235.5,228C 243.336,225.374 251.336,223.374 259.5,222C 274.2,221.502 288.867,222.002 303.5,223.5C 310.724,225.251 318.058,227.084 325.5,229C 328.866,232.354 332.866,234.021 337.5,234C 334.94,230.378 332.773,226.545 331,222.5C 327.01,207.681 326.343,192.681 329,177.5C 329.377,176.058 330.21,175.058 331.5,174.5 Z"/></g>
<g><path style="opacity:1" fill="#d6874a" d="M 209.5,235.5 C 208.948,237.331 208.948,238.997 209.5,240.5C 211.727,241.053 214.061,241.053 216.5,240.5C 211.857,246.147 207.19,251.814 202.5,257.5C 200.84,252.755 201.507,248.421 204.5,244.5C 205.466,242.604 205.799,240.604 205.5,238.5C 206.833,237.5 208.167,236.5 209.5,235.5 Z"/></g>
<g><path style="opacity:1" fill="#f8a962" d="M 216.5,240.5 C 214.061,241.053 211.727,241.053 209.5,240.5C 208.948,238.997 208.948,237.331 209.5,235.5C 212.984,234.131 216.651,233.131 220.5,232.5C 221.966,233.135 223.3,233.969 224.5,235C 222.504,237.832 219.838,239.665 216.5,240.5 Z"/></g>
<g><path style="opacity:1" fill="#f8b25b" d="M 252.5,238.5 C 249.818,239.955 247.151,241.289 244.5,242.5C 239.638,243.9 234.638,244.566 229.5,244.5C 229.714,242.856 229.38,241.356 228.5,240C 232.444,237.361 236.778,235.861 241.5,235.5C 241.33,234.178 241.663,233.011 242.5,232C 244.91,231.4 246.91,230.234 248.5,228.5C 250.124,228.36 251.29,229.027 252,230.5C 257.767,225.723 263.767,225.39 270,229.5C 273.91,225.577 277.744,225.577 281.5,229.5C 274.466,234.166 266.8,236 258.5,235C 255.848,235.353 253.848,236.52 252.5,238.5 Z"/></g>
<g><path style="opacity:1" fill="#de994b" d="M 337.5,238.5 C 337.36,240.124 338.027,241.29 339.5,242C 336.781,245.393 333.281,247.56 329,248.5C 325.449,248.295 321.783,247.628 318,246.5C 314.307,248.017 310.807,247.684 307.5,245.5C 305.232,246.544 302.899,246.711 300.5,246C 302.657,244.915 302.824,243.749 301,242.5C 299.518,244.781 297.851,244.781 296,242.5C 293.599,243.602 291.099,243.769 288.5,243C 287.027,242.29 286.36,241.124 286.5,239.5C 280.907,239.708 275.241,239.041 269.5,237.5C 265.9,237.645 262.4,238.311 259,239.5C 256.863,238.923 254.696,238.59 252.5,238.5C 253.848,236.52 255.848,235.353 258.5,235C 266.8,236 274.466,234.166 281.5,229.5C 277.744,225.577 273.91,225.577 270,229.5C 263.767,225.39 257.767,225.723 252,230.5C 251.29,229.027 250.124,228.36 248.5,228.5C 252.625,227.033 256.958,225.867 261.5,225C 282.342,225.077 303.009,227.077 323.5,231C 327.89,234.089 332.557,236.589 337.5,238.5 Z"/></g>
<g><path style="opacity:1" fill="#e6c7ae" d="M 251.5,349.5 C 251.343,350.873 251.51,352.207 252,353.5C 254.077,355.076 255.577,357.076 256.5,359.5C 258.304,360.768 260.304,361.435 262.5,361.5C 262.706,363.549 263.539,363.883 265,362.5C 267.009,364.522 268.509,366.855 269.5,369.5C 270.114,371.723 271.448,373.389 273.5,374.5C 273.137,375.183 272.804,375.85 272.5,376.5C 269.762,377.035 267.928,376.035 267,373.5C 265.887,374.711 264.72,374.711 263.5,373.5C 260.98,369.914 258.646,366.247 256.5,362.5C 254.591,361.652 252.591,361.318 250.5,361.5C 250.756,364.598 251.422,367.598 252.5,370.5C 251.167,368.833 249.833,367.167 248.5,365.5C 248.167,364.167 247.833,362.833 247.5,361.5C 246.526,358.035 245.192,354.701 243.5,351.5C 244.444,347.89 246.777,346.223 250.5,346.5C 250.263,347.791 250.596,348.791 251.5,349.5 Z"/></g>
<g><path style="opacity:1" fill="#da9d70" d="M 336.5,323.5 C 337.909,326.178 337.743,328.844 336,331.5C 334.385,345.325 334.218,359.158 335.5,373C 335.546,374.728 335.046,376.228 334,377.5C 328.313,374.299 322.147,372.799 315.5,373C 314.257,371.846 313.257,370.512 312.5,369C 305.45,368.203 298.45,368.37 291.5,369.5C 288.637,368.591 286.303,366.924 284.5,364.5C 279.748,367.29 275.248,366.956 271,363.5C 270.517,362.552 270.351,361.552 270.5,360.5C 266.283,359.025 261.95,357.692 257.5,356.5C 256.09,355.431 255.09,354.097 254.5,352.5C 253.962,350.883 253.629,349.216 253.5,347.5C 257.029,350.076 260.529,352.743 264,355.5C 265.856,356.736 267.689,356.736 269.5,355.5C 271.081,358.125 273.415,359.458 276.5,359.5C 276.302,357.425 276.135,355.425 276,353.5C 278.795,352.217 281.628,352.217 284.5,353.5C 292.125,361.099 301.458,364.265 312.5,363C 313.462,365.594 315.129,367.594 317.5,369C 321.604,369.433 325.604,370.267 329.5,371.5C 330.416,371.457 331.083,371.124 331.5,370.5C 332.331,359.341 332.831,348.007 333,336.5C 334.474,332.215 335.641,327.882 336.5,323.5 Z"/></g>
<g><path style="opacity:1" fill="#a96033" d="M 231.5,326.5 C 232.161,329.787 232.661,333.12 233,336.5C 233.374,338.491 234.207,340.158 235.5,341.5C 237.009,345.181 238.509,348.848 240,352.5C 242.241,355.779 244.741,358.779 247.5,361.5C 247.833,362.833 248.167,364.167 248.5,365.5C 247.687,370.461 248.853,374.794 252,378.5C 252.395,380.179 252.228,381.845 251.5,383.5C 252.225,384.867 252.892,386.2 253.5,387.5C 252.465,391.739 251.799,396.072 251.5,400.5C 250.5,401.167 249.5,401.833 248.5,402.5C 248.826,398.116 248.492,393.783 247.5,389.5C 244.579,390.407 241.579,390.74 238.5,390.5C 235.41,388.194 233.243,385.194 232,381.5C 227.976,369.332 227.809,356.999 231.5,344.5C 228.951,337.096 227.285,329.43 226.5,321.5C 227.913,316.111 229.58,310.778 231.5,305.5C 231.971,304.099 232.638,302.766 233.5,301.5C 233.833,301.833 234.167,302.167 234.5,302.5C 232.568,306.014 231.068,309.681 230,313.5C 229.002,318.144 229.502,322.477 231.5,326.5 Z"/></g>
<g><path style="opacity:1" fill="#e9bd9a" d="M 334.5,320.5 C 335.583,320.539 336.583,320.873 337.5,321.5C 338.37,323.407 339.37,325.24 340.5,327C 339.082,330.001 338.249,333.168 338,336.5C 336.702,352.574 336.202,368.574 336.5,384.5C 335.448,384.649 334.448,384.483 333.5,384C 332.359,381.692 330.692,379.859 328.5,378.5C 327.406,380.303 325.739,380.636 323.5,379.5C 320.921,379.86 318.421,380.526 316,381.5C 314.831,380.991 313.998,380.158 313.5,379C 308.246,379.377 304.579,377.211 302.5,372.5C 301.5,372.167 300.5,371.833 299.5,371.5C 290.434,373.786 282.101,372.286 274.5,367C 272.866,366.506 271.199,366.34 269.5,366.5C 268.614,362.963 266.281,361.296 262.5,361.5C 260.304,361.435 258.304,360.768 256.5,359.5C 255.577,357.076 254.077,355.076 252,353.5C 251.51,352.207 251.343,350.873 251.5,349.5C 252.1,350.9 253.1,351.9 254.5,352.5C 255.09,354.097 256.09,355.431 257.5,356.5C 261.95,357.692 266.283,359.025 270.5,360.5C 270.351,361.552 270.517,362.552 271,363.5C 275.248,366.956 279.748,367.29 284.5,364.5C 286.303,366.924 288.637,368.591 291.5,369.5C 298.45,368.37 305.45,368.203 312.5,369C 313.257,370.512 314.257,371.846 315.5,373C 322.147,372.799 328.313,374.299 334,377.5C 335.046,376.228 335.546,374.728 335.5,373C 334.218,359.158 334.385,345.325 336,331.5C 337.743,328.844 337.909,326.178 336.5,323.5C 335.094,323.027 334.427,322.027 334.5,320.5 Z"/></g>
<g><path style="opacity:1" fill="#f5dabc" d="M 333.5,313.5 C 336.299,315.738 339.299,317.738 342.5,319.5C 342.291,320.086 341.957,320.586 341.5,321C 346.334,324.201 346.668,327.867 342.5,332C 344.061,332.941 345.395,334.108 346.5,335.5C 345.384,335.402 344.384,335.902 343.5,337C 342.576,338.15 342.576,339.15 343.5,340C 342.667,340.833 341.833,341.667 341,342.5C 339.367,347.479 339.2,352.479 340.5,357.5C 339.383,358.949 338.716,360.616 338.5,362.5C 339.968,369.069 340.801,375.736 341,382.5C 341.692,383.025 342.192,383.692 342.5,384.5C 339.949,387.74 336.615,388.907 332.5,388C 330.074,386.855 327.741,385.522 325.5,384C 316.341,384.233 308.008,381.9 300.5,377C 295.134,376.348 289.801,375.515 284.5,374.5C 280.578,372.504 276.578,370.504 272.5,368.5C 271.416,368.685 270.416,369.018 269.5,369.5C 268.509,366.855 267.009,364.522 265,362.5C 263.539,363.883 262.706,363.549 262.5,361.5C 266.281,361.296 268.614,362.963 269.5,366.5C 271.199,366.34 272.866,366.506 274.5,367C 282.101,372.286 290.434,373.786 299.5,371.5C 300.5,371.833 301.5,372.167 302.5,372.5C 304.579,377.211 308.246,379.377 313.5,379C 313.998,380.158 314.831,380.991 316,381.5C 318.421,380.526 320.921,379.86 323.5,379.5C 325.739,380.636 327.406,380.303 328.5,378.5C 330.692,379.859 332.359,381.692 333.5,384C 334.448,384.483 335.448,384.649 336.5,384.5C 336.202,368.574 336.702,352.574 338,336.5C 338.249,333.168 339.082,330.001 340.5,327C 339.37,325.24 338.37,323.407 337.5,321.5C 336.583,320.873 335.583,320.539 334.5,320.5C 333.351,320.209 332.684,319.376 332.5,318C 332.773,316.467 333.106,314.967 333.5,313.5 Z"/></g>
<g><path style="opacity:1" fill="#e9d5c3" d="M 272.5,376.5 C 277.406,375.588 280.739,377.421 282.5,382C 289.667,387.158 297.334,390.325 305.5,391.5C 307.536,393.984 310.202,394.984 313.5,394.5C 313.5,395.5 313.5,396.5 313.5,397.5C 318.311,396.74 321.978,398.407 324.5,402.5C 325.869,400.876 327.536,400.376 329.5,401C 329.167,401.333 328.833,401.667 328.5,402C 330.833,403 332.5,404.667 333.5,407C 334.577,407.47 335.577,407.303 336.5,406.5C 337.919,408.83 337.419,410.83 335,412.5C 331.197,411.539 327.364,410.706 323.5,410C 313.108,405.479 302.441,401.479 291.5,398C 282.999,394.176 274.666,390.176 266.5,386C 261.256,381.261 256.59,376.095 252.5,370.5C 251.422,367.598 250.756,364.598 250.5,361.5C 252.591,361.318 254.591,361.652 256.5,362.5C 258.646,366.247 260.98,369.914 263.5,373.5C 264.72,374.711 265.887,374.711 267,373.5C 267.928,376.035 269.762,377.035 272.5,376.5 Z"/></g>
<g><path style="opacity:1" fill="#ecc39d" d="M 247.5,403.5 C 242.5,402.167 237.5,402.167 232.5,403.5C 232.5,402.5 232.5,401.5 232.5,400.5C 229.934,400.656 227.434,400.322 225,399.5C 223.049,397.353 220.716,395.686 218,394.5C 217.148,395.571 216.315,396.571 215.5,397.5C 215.552,395.097 215.219,392.764 214.5,390.5C 214.628,386.119 214.295,381.785 213.5,377.5C 214.151,376.909 214.818,376.243 215.5,375.5C 217.629,377.656 219.962,379.323 222.5,380.5C 223.085,385.515 223.752,390.515 224.5,395.5C 227.518,395.335 230.518,395.502 233.5,396C 235.259,397.008 236.426,398.508 237,400.5C 241.517,398.533 245.017,399.533 247.5,403.5 Z"/></g>
<g><path style="opacity:1" fill="#9e826f" d="M 493.5,250.5 C 494.239,250.369 494.906,250.536 495.5,251C 493.266,251.969 491.266,253.302 489.5,255C 484.963,255.093 480.963,256.426 477.5,259C 480.037,261.872 482.87,264.372 486,266.5C 486.667,267.833 486.667,269.167 486,270.5C 482.509,273.204 483.009,274.87 487.5,275.5C 488.5,275.833 489.167,276.5 489.5,277.5C 490.639,280.004 491.306,282.67 491.5,285.5C 488.996,286.639 486.33,287.306 483.5,287.5C 483.826,295.132 485.326,302.466 488,309.5C 488.667,316.167 488.667,322.833 488,329.5C 484.557,338.135 482.39,347.135 481.5,356.5C 480.5,356.5 479.5,356.5 478.5,356.5C 478.052,366.272 474.385,374.605 467.5,381.5C 465.63,390.297 462.13,398.297 457,405.5C 455.423,412.299 453.423,418.966 451,425.5C 450.333,431.5 450.333,437.5 451,443.5C 453.863,447.38 455.03,451.713 454.5,456.5C 452.574,459.649 449.908,460.315 446.5,458.5C 444.833,459.167 443.167,459.833 441.5,460.5C 438.838,459.503 436.172,458.503 433.5,457.5C 430.562,458.575 427.562,458.741 424.5,458C 423.058,457.623 422.058,456.79 421.5,455.5C 430.951,456.977 432.951,453.644 427.5,445.5C 430.124,445.077 431.791,446.41 432.5,449.5C 432.5,451.833 432.5,454.167 432.5,456.5C 435.493,457.135 438.493,457.301 441.5,457C 442.097,455.938 442.43,454.772 442.5,453.5C 442.66,451.645 441.993,450.312 440.5,449.5C 440.706,447.451 441.539,447.117 443,448.5C 444.118,450.765 444.951,453.099 445.5,455.5C 448.699,455.304 450.699,453.637 451.5,450.5C 447.458,441.906 446.458,432.906 448.5,423.5C 450.591,418.18 452.091,412.514 453,406.5C 455,403.833 457,401.167 459,398.5C 459.982,397.241 460.315,395.908 460,394.5C 455.375,399.133 450.209,402.966 444.5,406C 433.989,407.271 423.655,409.104 413.5,411.5C 413.771,413.38 413.104,414.713 411.5,415.5C 411.5,414.167 411.5,412.833 411.5,411.5C 404.271,411.018 397.271,412.018 390.5,414.5C 387.16,423.537 385.66,432.871 386,442.5C 387.394,444.388 388.56,446.388 389.5,448.5C 389.795,450.735 389.461,452.735 388.5,454.5C 388.474,450.019 386.807,446.353 383.5,443.5C 383.334,439.154 383.501,434.821 384,430.5C 386.122,425.726 387.288,420.726 387.5,415.5C 383.594,415.714 379.761,416.381 376,417.5C 375.235,417.43 374.735,417.097 374.5,416.5C 389.359,410.378 405.025,407.211 421.5,407C 423.635,405.619 425.968,404.619 428.5,404C 435.961,403.885 442.961,402.052 449.5,398.5C 459.691,388.809 468.191,377.809 475,365.5C 478.975,353.828 482.141,341.828 484.5,329.5C 485.491,322.687 485.825,315.687 485.5,308.5C 483.684,300.801 481.684,293.135 479.5,285.5C 481.857,285.663 484.19,285.497 486.5,285C 487.357,284.311 488.023,283.478 488.5,282.5C 485.313,279.147 482.313,275.647 479.5,272C 481.327,271.101 482.66,269.767 483.5,268C 481.402,265.12 479.069,262.453 476.5,260C 468.819,259.353 461.152,259.519 453.5,260.5C 445.099,260.076 436.766,259.242 428.5,258C 435.346,257.828 442.013,257.328 448.5,256.5C 450.167,256.5 451.833,256.5 453.5,256.5C 467.04,255.515 480.373,253.515 493.5,250.5 Z"/></g>
<g><path style="opacity:1" fill="#da9764" d="M 238.5,390.5 C 241.579,390.74 244.579,390.407 247.5,389.5C 248.492,393.783 248.826,398.116 248.5,402.5C 248.5,403.167 248.167,403.5 247.5,403.5C 245.017,399.533 241.517,398.533 237,400.5C 236.426,398.508 235.259,397.008 233.5,396C 230.518,395.502 227.518,395.335 224.5,395.5C 223.752,390.515 223.085,385.515 222.5,380.5C 219.962,379.323 217.629,377.656 215.5,375.5C 214.818,376.243 214.151,376.909 213.5,377.5C 212.766,376.292 212.433,374.959 212.5,373.5C 212.149,371.131 211.982,368.797 212,366.5C 213.133,364.789 214.633,364.289 216.5,365C 218.394,366.101 219.061,367.434 218.5,369C 220.587,373.807 222.754,378.64 225,383.5C 224.353,392.078 226.853,393.411 232.5,387.5C 234.511,388.519 236.511,389.519 238.5,390.5 Z"/></g>
<g><path style="opacity:0.302" fill="#8c9187" d="M 282.5,398.5 C 272.883,396.077 264.55,391.41 257.5,384.5C 253.701,394.81 252.201,405.476 253,416.5C 255.142,418.87 256.309,421.703 256.5,425C 256.613,426.699 255.947,427.866 254.5,428.5C 254.872,423.976 253.705,419.976 251,416.5C 250.5,414 250,411.5 249.5,409C 250.895,406.321 251.561,403.488 251.5,400.5C 251.799,396.072 252.465,391.739 253.5,387.5C 254.461,385.735 254.795,383.735 254.5,381.5C 255.552,381.351 256.552,381.517 257.5,382C 262.662,388.578 269.329,392.578 277.5,394C 279.063,395.736 280.73,397.236 282.5,398.5 Z"/></g>
<g><path style="opacity:1" fill="#ddc8ba" d="M 448.5,423.5 C 448.773,421.042 447.773,419.375 445.5,418.5C 443.416,418.005 440.75,418.005 437.5,418.5C 437.5,417.167 437.5,415.833 437.5,414.5C 434.076,415.711 430.742,417.211 427.5,419C 424.366,419.115 421.366,419.282 418.5,419.5C 418.631,418.624 418.298,417.957 417.5,417.5C 415.754,419.854 413.421,420.854 410.5,420.5C 410.5,418.833 410.5,417.167 410.5,415.5C 410.833,415.5 411.167,415.5 411.5,415.5C 413.104,414.713 413.771,413.38 413.5,411.5C 423.655,409.104 433.989,407.271 444.5,406C 450.209,402.966 455.375,399.133 460,394.5C 460.315,395.908 459.982,397.241 459,398.5C 457,401.167 455,403.833 453,406.5C 452.091,412.514 450.591,418.18 448.5,423.5 Z"/></g>
<g><path style="opacity:1" fill="#f2dcc2" d="M 247.5,403.5 C 247.334,408.179 247.501,412.845 248,417.5C 250.833,419.836 252,422.836 251.5,426.5C 249.5,426.833 247.5,427.167 245.5,427.5C 245.752,424.68 245.252,422.014 244,419.5C 242.89,417.963 241.39,417.297 239.5,417.5C 239.284,419.681 240.117,421.347 242,422.5C 243.167,427.835 241,430.169 235.5,429.5C 234.895,427.974 233.729,426.974 232,426.5C 231.073,422.082 228.573,419.082 224.5,417.5C 224.569,420.084 225.735,422.084 228,423.5C 228.49,424.793 228.657,426.127 228.5,427.5C 217.947,429.112 212.947,424.612 213.5,414C 214.102,408.355 214.769,402.855 215.5,397.5C 216.315,396.571 217.148,395.571 218,394.5C 220.716,395.686 223.049,397.353 225,399.5C 227.434,400.322 229.934,400.656 232.5,400.5C 232.5,401.5 232.5,402.5 232.5,403.5C 237.5,402.167 242.5,402.167 247.5,403.5 Z"/></g>
<g><path style="opacity:0.175" fill="#8a9189" d="M 283.5,399.5 C 283.56,398.957 283.893,398.624 284.5,398.5C 289.128,401.076 294.128,402.576 299.5,403C 300.167,403.667 300.833,404.333 301.5,405C 306.652,407.13 311.986,408.797 317.5,410C 318.167,410.667 318.833,411.333 319.5,412C 326.999,413.706 334.332,415.706 341.5,418C 342,418.5 342.5,419 343,419.5C 344.259,425.793 345.259,432.127 346,438.5C 348.372,442.905 349.872,447.572 350.5,452.5C 348.36,449.083 346.527,445.417 345,441.5C 343.854,433.585 342.021,425.918 339.5,418.5C 320.239,413.867 301.573,407.534 283.5,399.5 Z"/></g>
<g><path style="opacity:0.251" fill="#919790" d="M 411.5,415.5 C 411.167,415.5 410.833,415.5 410.5,415.5C 410.5,414.5 410.5,413.5 410.5,412.5C 403.547,412.673 397.047,414.34 391,417.5C 389.542,424.095 388.376,430.762 387.5,437.5C 387.087,441.299 388.087,444.633 390.5,447.5C 390.376,448.107 390.043,448.44 389.5,448.5C 388.56,446.388 387.394,444.388 386,442.5C 385.66,432.871 387.16,423.537 390.5,414.5C 397.271,412.018 404.271,411.018 411.5,411.5C 411.5,412.833 411.5,414.167 411.5,415.5 Z"/></g>
<g><path style="opacity:1" fill="#f5e2cc" d="M 448.5,423.5 C 446.458,432.906 447.458,441.906 451.5,450.5C 450.699,453.637 448.699,455.304 445.5,455.5C 444.951,453.099 444.118,450.765 443,448.5C 441.539,447.117 440.706,447.451 440.5,449.5C 437.974,450.657 435.307,450.657 432.5,449.5C 431.791,446.41 430.124,445.077 427.5,445.5C 432.951,453.644 430.951,456.977 421.5,455.5C 420.5,455.167 419.833,454.5 419.5,453.5C 420.338,453.158 420.672,452.492 420.5,451.5C 420.169,447.086 419.335,442.752 418,438.5C 417.21,432.085 417.376,425.752 418.5,419.5C 421.366,419.282 424.366,419.115 427.5,419C 430.742,417.211 434.076,415.711 437.5,414.5C 437.5,415.833 437.5,417.167 437.5,418.5C 440.75,418.005 443.416,418.005 445.5,418.5C 447.773,419.375 448.773,421.042 448.5,423.5 Z"/></g>
<g><path style="opacity:1" fill="#9c7e68" d="M 212.5,388.5 C 213.167,389.167 213.833,389.833 214.5,390.5C 215.219,392.764 215.552,395.097 215.5,397.5C 214.769,402.855 214.102,408.355 213.5,414C 212.947,424.612 217.947,429.112 228.5,427.5C 228.657,426.127 228.49,424.793 228,423.5C 225.735,422.084 224.569,420.084 224.5,417.5C 228.573,419.082 231.073,422.082 232,426.5C 233.729,426.974 234.895,427.974 235.5,429.5C 230.238,429.251 224.905,429.084 219.5,429C 213.931,427.253 211.264,423.42 211.5,417.5C 212.897,411.931 213.563,406.265 213.5,400.5C 213.354,396.481 213.021,392.481 212.5,388.5 Z"/></g>
<g><path style="opacity:0.953" fill="#987e6c" d="M 251.5,400.5 C 251.561,403.488 250.895,406.321 249.5,409C 250,411.5 250.5,414 251,416.5C 253.705,419.976 254.872,423.976 254.5,428.5C 249.494,429.056 244.494,429.723 239.5,430.5C 237.955,430.489 236.622,430.156 235.5,429.5C 241,430.169 243.167,427.835 242,422.5C 240.117,421.347 239.284,419.681 239.5,417.5C 241.39,417.297 242.89,417.963 244,419.5C 245.252,422.014 245.752,424.68 245.5,427.5C 247.5,427.167 249.5,426.833 251.5,426.5C 252,422.836 250.833,419.836 248,417.5C 247.501,412.845 247.334,408.179 247.5,403.5C 248.167,403.5 248.5,403.167 248.5,402.5C 249.5,401.833 250.5,401.167 251.5,400.5 Z"/></g>
<g><path style="opacity:1" fill="#e8d1be" d="M 383.5,443.5 C 382.676,439.688 382.176,435.688 382,431.5C 380.418,429.289 378.251,427.955 375.5,427.5C 372.926,424.635 372.926,421.801 375.5,419C 373.641,418.399 373.308,417.566 374.5,416.5C 374.735,417.097 375.235,417.43 376,417.5C 379.761,416.381 383.594,415.714 387.5,415.5C 387.288,420.726 386.122,425.726 384,430.5C 383.501,434.821 383.334,439.154 383.5,443.5 Z"/></g>
<g><path style="opacity:0.102" fill="#828e88" d="M 212.5,400.5 C 212.833,400.5 213.167,400.5 213.5,400.5C 213.563,406.265 212.897,411.931 211.5,417.5C 211.264,423.42 213.931,427.253 219.5,429C 224.905,429.084 230.238,429.251 235.5,429.5C 236.622,430.156 237.955,430.489 239.5,430.5C 244.494,429.723 249.494,429.056 254.5,428.5C 249.604,430.015 244.604,431.349 239.5,432.5C 236.678,432.448 234.011,431.781 231.5,430.5C 223.834,432.208 217.001,430.542 211,425.5C 210.182,422.893 209.682,420.226 209.5,417.5C 210.63,411.849 211.63,406.182 212.5,400.5 Z"/></g>
<g><path style="opacity:0.994" fill="#a1826d" d="M 248.5,365.5 C 249.833,367.167 251.167,368.833 252.5,370.5C 256.59,376.095 261.256,381.261 266.5,386C 274.666,390.176 282.999,394.176 291.5,398C 302.441,401.479 313.108,405.479 323.5,410C 327.364,410.706 331.197,411.539 335,412.5C 337.419,410.83 337.919,408.83 336.5,406.5C 335.659,404.621 335.325,402.621 335.5,400.5C 337.167,400.5 338.833,400.5 340.5,400.5C 340.104,397.956 340.771,395.789 342.5,394C 343.996,393.493 345.163,393.993 346,395.5C 347.401,397.146 347.568,398.813 346.5,400.5C 345.416,399.335 344.583,398.002 344,396.5C 343.503,398.81 343.337,401.143 343.5,403.5C 341.669,402.948 340.003,402.948 338.5,403.5C 339.123,405.711 340.123,407.711 341.5,409.5C 340.585,410.328 339.919,411.328 339.5,412.5C 340.462,415.245 342.295,417.245 345,418.5C 346.931,430.228 350.097,441.561 354.5,452.5C 354.392,453.442 354.059,454.275 353.5,455C 362.371,459.965 365.705,457.465 363.5,447.5C 364.325,446.614 365.325,446.281 366.5,446.5C 366.616,449.86 366.949,453.193 367.5,456.5C 370.167,456.5 372.833,456.5 375.5,456.5C 375.288,452.985 375.288,449.652 375.5,446.5C 376.478,446.977 377.311,447.643 378,448.5C 378.503,455.317 382.003,457.317 388.5,454.5C 386.403,456.89 383.736,458.556 380.5,459.5C 379.167,458.833 377.833,458.167 376.5,457.5C 373.295,460.1 370.128,460.1 367,457.5C 362.454,460.167 357.954,460 353.5,457C 351.859,455.871 350.859,454.371 350.5,452.5C 349.872,447.572 348.372,442.905 346,438.5C 345.259,432.127 344.259,425.793 343,419.5C 342.5,419 342,418.5 341.5,418C 334.332,415.706 326.999,413.706 319.5,412C 318.833,411.333 318.167,410.667 317.5,410C 311.986,408.797 306.652,407.13 301.5,405C 300.833,404.333 300.167,403.667 299.5,403C 294.128,402.576 289.128,401.076 284.5,398.5C 283.893,398.624 283.56,398.957 283.5,399.5C 282.833,399.5 282.5,399.167 282.5,398.5C 280.73,397.236 279.063,395.736 277.5,394C 269.329,392.578 262.662,388.578 257.5,382C 256.552,381.517 255.552,381.351 254.5,381.5C 254.795,383.735 254.461,385.735 253.5,387.5C 252.892,386.2 252.225,384.867 251.5,383.5C 252.228,381.845 252.395,380.179 252,378.5C 248.853,374.794 247.687,370.461 248.5,365.5 Z"/></g>
<g><path style="opacity:0.308" fill="#818f88" d="M 412.5,423.5 C 413.209,422.596 414.209,422.263 415.5,422.5C 415.067,431.657 415.9,440.657 418,449.5C 418.708,450.381 419.542,451.047 420.5,451.5C 420.672,452.492 420.338,453.158 419.5,453.5C 416.973,451.205 415.473,448.205 415,444.5C 414.098,437.36 413.265,430.36 412.5,423.5 Z"/></g>
<g><path style="opacity:0.996" fill="#a38877" d="M 410.5,415.5 C 410.5,417.167 410.5,418.833 410.5,420.5C 413.421,420.854 415.754,419.854 417.5,417.5C 418.298,417.957 418.631,418.624 418.5,419.5C 417.376,425.752 417.21,432.085 418,438.5C 419.335,442.752 420.169,447.086 420.5,451.5C 419.542,451.047 418.708,450.381 418,449.5C 415.9,440.657 415.067,431.657 415.5,422.5C 414.209,422.263 413.209,422.596 412.5,423.5C 408.136,421.671 407.469,419.004 410.5,415.5 Z"/></g>
<g><path style="opacity:1" fill="#d8bfac" d="M 432.5,449.5 C 435.307,450.657 437.974,450.657 440.5,449.5C 441.993,450.312 442.66,451.645 442.5,453.5C 442.43,454.772 442.097,455.938 441.5,457C 438.493,457.301 435.493,457.135 432.5,456.5C 432.5,454.167 432.5,451.833 432.5,449.5 Z"/></g>
</svg>
