<?xml version="1.0" encoding="UTF-8"?>
<!DOCTYPE svg PUBLIC "-//W3C//DTD SVG 1.1//EN" "http://www.w3.org/Graphics/SVG/1.1/DTD/svg11.dtd">
<svg xmlns="http://www.w3.org/2000/svg" version="1.1" width="183px" height="183px" style="shape-rendering:geometricPrecision; text-rendering:geometricPrecision; image-rendering:optimizeQuality; fill-rule:evenodd; clip-rule:evenodd" xmlns:xlink="http://www.w3.org/1999/xlink">
<g><path style="opacity:0.859" fill="#040207" d="M 82.5,-0.5 C 88.5,-0.5 94.5,-0.5 100.5,-0.5C 145.037,7.36894 172.37,33.3689 182.5,77.5C 182.5,86.5 182.5,95.5 182.5,104.5C 176.077,136.77 158.077,160.27 128.5,175C 119.633,178.463 110.633,180.963 101.5,182.5C 94.8333,182.5 88.1667,182.5 81.5,182.5C 37.0367,174.827 10.2033,148.827 1,104.5C -2.93623,63.8753 12.2304,32.7086 46.5,11C 58.0157,5.21519 70.0157,1.38185 82.5,-0.5 Z"/></g>
<g><path style="opacity:1" fill="#a13ff9" d="M 156.5,32.5 C 154.782,33.224 152.948,33.8906 151,34.5C 146.823,34.1805 142.49,33.5138 138,32.5C 136.667,33.8333 135.333,33.8333 134,32.5C 133.667,33.1667 133.333,33.8333 133,34.5C 131.172,33.2475 129.339,33.2475 127.5,34.5C 128.435,23.5872 123.769,19.4205 113.5,22C 109.2,25.2981 105.2,28.9648 101.5,33C 93.1667,33.6667 84.8333,33.6667 76.5,33C 71.2446,29.7489 66.5779,25.7489 62.5,21C 60.1829,18.8431 57.5162,17.3431 54.5,16.5C 52.8333,15.8333 51.1667,15.1667 49.5,14.5C 66.1657,4.88529 84.1657,1.38529 103.5,4C 124.673,7.24909 142.34,16.7491 156.5,32.5 Z"/></g>
<g><path style="opacity:1" fill="#0c080a" d="M 54.5,16.5 C 57.5162,17.3431 60.1829,18.8431 62.5,21C 66.5779,25.7489 71.2446,29.7489 76.5,33C 84.8333,33.6667 93.1667,33.6667 101.5,33C 105.2,28.9648 109.2,25.2981 113.5,22C 123.769,19.4205 128.435,23.5872 127.5,34.5C 126.962,40.4018 127.795,46.0685 130,51.5C 130.708,52.3805 131.542,53.0472 132.5,53.5C 133.699,56.0321 135.699,57.3654 138.5,57.5C 143.438,56.312 148.438,55.6454 153.5,55.5C 153.5,57.1667 153.5,58.8333 153.5,60.5C 152.167,60.5 150.833,60.5 149.5,60.5C 149.5,62.5 149.5,64.5 149.5,66.5C 147.833,66.5 146.167,66.5 144.5,66.5C 147.363,72.1 149.03,78.1 149.5,84.5C 150.114,93.3155 148.447,101.649 144.5,109.5C 132.298,140.444 109.631,152.944 76.5,147C 58.8231,140.489 46.1564,128.655 38.5,111.5C 34.9998,102.166 33.3331,92.4991 33.5,82.5C 34.3497,77.7508 35.5163,73.0842 37,68.5C 37.7466,65.0764 37.58,61.7431 36.5,58.5C 35.7731,46.7439 37.6064,35.4105 42,24.5C 44.5471,19.0904 48.7138,16.4237 54.5,16.5 Z"/></g>
<g><path style="opacity:1" fill="#0e0b04" d="M 61.5,43.5 C 61.9528,44.4584 62.6195,45.2917 63.5,46C 59.4866,48.0055 55.8199,50.5055 52.5,53.5C 50.9848,51.4527 50.1515,49.1193 50,46.5C 49.501,42.1794 49.3343,37.8461 49.5,33.5C 50.1646,31.6309 50.8313,29.6309 51.5,27.5C 53.8409,33.5285 57.1743,38.8618 61.5,43.5 Z"/></g>
<g><path style="opacity:1" fill="#f7d75a" d="M 123.5,42.5 C 103.007,43.4972 82.3401,43.8305 61.5,43.5C 57.1743,38.8618 53.8409,33.5285 51.5,27.5C 50.8313,29.6309 50.1646,31.6309 49.5,33.5C 46.8684,31.9365 44.5351,32.2699 42.5,34.5C 43.4345,30.6272 44.9345,26.9605 47,23.5C 50.847,18.4814 55.0137,18.3147 59.5,23C 63.1667,26.6667 66.8333,30.3333 70.5,34C 73.172,35.5574 76.0053,36.724 79,37.5C 86.8179,36.5768 94.6512,36.4101 102.5,37C 105.833,33.6667 109.167,30.3333 112.5,27C 115.939,24.0034 119.439,23.8367 123,26.5C 123.499,31.8229 123.666,37.1563 123.5,42.5 Z"/></g>
<g><path style="opacity:1" fill="#9351f8" d="M 156.5,32.5 C 161.972,37.9866 166.306,44.32 169.5,51.5C 169.631,52.2389 169.464,52.9056 169,53.5C 167.602,52.9491 166.268,52.6158 165,52.5C 163.225,55.0443 161.392,55.0443 159.5,52.5C 158.522,52.9767 157.689,53.6433 157,54.5C 155.846,52.0426 154.512,52.0426 153,54.5C 152,53.1667 151,53.1667 150,54.5C 148.324,53.9389 146.991,52.9389 146,51.5C 144.6,54.3455 143.1,54.6789 141.5,52.5C 139.405,54.5894 137.572,54.5894 136,52.5C 134.989,53.3366 133.822,53.67 132.5,53.5C 131.542,53.0472 130.708,52.3805 130,51.5C 127.795,46.0685 126.962,40.4018 127.5,34.5C 129.339,33.2475 131.172,33.2475 133,34.5C 133.333,33.8333 133.667,33.1667 134,32.5C 135.333,33.8333 136.667,33.8333 138,32.5C 142.49,33.5138 146.823,34.1805 151,34.5C 152.948,33.8906 154.782,33.224 156.5,32.5 Z"/></g>
<g><path style="opacity:1" fill="#fac84a" d="M 49.5,33.5 C 49.3343,37.8461 49.501,42.1794 50,46.5C 50.1515,49.1193 50.9848,51.4527 52.5,53.5C 55.8199,50.5055 59.4866,48.0055 63.5,46C 62.6195,45.2917 61.9528,44.4584 61.5,43.5C 82.3401,43.8305 103.007,43.4972 123.5,42.5C 124.475,45.3112 125.142,48.3112 125.5,51.5C 124.432,52.4345 123.099,52.7678 121.5,52.5C 119.182,49.6034 116.349,48.9367 113,50.5C 112.167,54.8362 114,56.8362 118.5,56.5C 117.359,57.339 116.026,58.0057 114.5,58.5C 108.319,57.6489 101.652,57.6489 94.5,58.5C 95.6998,54.1665 93.8665,51.8331 89,51.5C 85.2209,52.4421 83.0543,54.7754 82.5,58.5C 68.7448,56.5446 54.7448,55.878 40.5,56.5C 40.0913,49.0141 40.758,41.6808 42.5,34.5C 44.5351,32.2699 46.8684,31.9365 49.5,33.5 Z"/></g>
<g><path style="opacity:1" fill="#fee09f" d="M 121.5,52.5 C 121.532,54.6188 120.532,55.9522 118.5,56.5C 114,56.8362 112.167,54.8362 113,50.5C 116.349,48.9367 119.182,49.6034 121.5,52.5 Z"/></g>
<g><path style="opacity:1" fill="#9251f6" d="M 49.5,14.5 C 51.1667,15.1667 52.8333,15.8333 54.5,16.5C 48.7138,16.4237 44.5471,19.0904 42,24.5C 37.6064,35.4105 35.7731,46.7439 36.5,58.5C 33.8431,58.162 31.5098,58.8287 29.5,60.5C 28.8076,59.9747 28.3076,59.3081 28,58.5C 27.3109,59.3567 26.4776,60.0233 25.5,60.5C 23.6605,57.1578 21.4938,56.8245 19,59.5C 17.2839,59.5894 15.4506,59.2561 13.5,58.5C 11.678,62.1021 10.678,62.1021 10.5,58.5C 17.8097,38.8532 30.8097,24.1865 49.5,14.5 Z"/></g>
<g><path style="opacity:1" fill="#fee09d" d="M 94.5,58.5 C 90.5,59.8333 86.5,59.8333 82.5,58.5C 83.0543,54.7754 85.2209,52.4421 89,51.5C 93.8665,51.8331 95.6998,54.1665 94.5,58.5 Z"/></g>
<g><path style="opacity:1" fill="#8b59f5" d="M 36.5,58.5 C 37.58,61.7431 37.7466,65.0764 37,68.5C 35.5163,73.0842 34.3497,77.7508 33.5,82.5C 31.1346,81.9916 28.8013,81.3249 26.5,80.5C 25.0626,83.0443 23.5626,83.0443 22,80.5C 20.1568,80.4394 18.3234,80.7727 16.5,81.5C 15.8333,81.8333 15.1667,82.1667 14.5,82.5C 11.9034,81.4048 9.40339,81.7382 7,83.5C 5.79777,81.3225 5.29777,78.9892 5.5,76.5C 5.62947,69.9716 7.29614,63.9716 10.5,58.5C 10.678,62.1021 11.678,62.1021 13.5,58.5C 15.4506,59.2561 17.2839,59.5894 19,59.5C 21.4938,56.8245 23.6605,57.1578 25.5,60.5C 26.4776,60.0233 27.3109,59.3567 28,58.5C 28.3076,59.3081 28.8076,59.9747 29.5,60.5C 31.5098,58.8287 33.8431,58.162 36.5,58.5 Z"/></g>
<g><path style="opacity:1" fill="#fbbb3d" d="M 125.5,51.5 C 126.926,54.0964 128.926,56.263 131.5,58C 115.835,60.0348 100.168,61.8681 84.5,63.5C 70.0095,62.504 55.3428,62.1707 40.5,62.5C 40.5,60.5 40.5,58.5 40.5,56.5C 54.7448,55.878 68.7448,56.5446 82.5,58.5C 86.5,59.8333 90.5,59.8333 94.5,58.5C 101.652,57.6489 108.319,57.6489 114.5,58.5C 116.026,58.0057 117.359,57.339 118.5,56.5C 120.532,55.9522 121.532,54.6188 121.5,52.5C 123.099,52.7678 124.432,52.4345 125.5,51.5 Z"/></g>
<g><path style="opacity:1" fill="#8a59f3" d="M 169.5,51.5 C 174.908,61.4036 177.908,72.0703 178.5,83.5C 178.663,85.8568 178.497,88.1902 178,90.5C 175.118,89.603 172.118,89.603 169,90.5C 167.489,89.436 167.323,88.1026 168.5,86.5C 168.555,79.058 166.221,78.2246 161.5,84C 163.141,85.129 164.141,86.629 164.5,88.5C 163.504,88.4142 162.671,88.7476 162,89.5C 161.667,88.8333 161.333,88.1667 161,87.5C 160.333,88.8333 159.667,88.8333 159,87.5C 157.513,88.2529 157.346,89.0862 158.5,90C 157.551,90.6172 156.718,90.4506 156,89.5C 155.333,92.1667 154.667,92.1667 154,89.5C 153.692,90.3081 153.192,90.9747 152.5,91.5C 151.509,89.5476 150.509,87.2143 149.5,84.5C 149.03,78.1 147.363,72.1 144.5,66.5C 146.167,66.5 147.833,66.5 149.5,66.5C 149.5,64.5 149.5,62.5 149.5,60.5C 150.833,60.5 152.167,60.5 153.5,60.5C 153.5,58.8333 153.5,57.1667 153.5,55.5C 148.438,55.6454 143.438,56.312 138.5,57.5C 135.699,57.3654 133.699,56.0321 132.5,53.5C 133.822,53.67 134.989,53.3366 136,52.5C 137.572,54.5894 139.405,54.5894 141.5,52.5C 143.1,54.6789 144.6,54.3455 146,51.5C 146.991,52.9389 148.324,53.9389 150,54.5C 151,53.1667 152,53.1667 153,54.5C 154.512,52.0426 155.846,52.0426 157,54.5C 157.689,53.6433 158.522,52.9767 159.5,52.5C 161.392,55.0443 163.225,55.0443 165,52.5C 166.268,52.6158 167.602,52.9491 169,53.5C 169.464,52.9056 169.631,52.2389 169.5,51.5 Z"/></g>
<g><path style="opacity:1" fill="#d8d8d8" d="M 144.5,66.5 C 142.958,67.3007 141.292,67.634 139.5,67.5C 139.5,65.5 139.5,63.5 139.5,61.5C 141.167,61.5 142.833,61.5 144.5,61.5C 144.5,63.1667 144.5,64.8333 144.5,66.5 Z"/></g>
<g><path style="opacity:1" fill="#fbfbfa" d="M 139.5,67.5 C 146.778,77.5714 148.278,88.5714 144,100.5C 142.725,104.042 141.225,107.375 139.5,110.5C 136.456,110.772 134.123,112.105 132.5,114.5C 129.43,120.531 124.43,123.198 117.5,122.5C 114.958,122.414 112.458,122.08 110,121.5C 108.97,121.836 108.47,122.503 108.5,123.5C 105.946,127.219 102.613,130.052 98.5,132C 85.78,135.259 73.78,133.592 62.5,127C 56.661,123.311 50.9943,119.478 45.5,115.5C 42.121,111.072 40.121,106.072 39.5,100.5C 40.6529,85.5068 48.6529,78.6735 63.5,80C 71.0669,82.115 77.7336,85.7817 83.5,91C 89.0642,92.01 94.3975,91.3433 99.5,89C 103.569,85.9368 107.902,83.2701 112.5,81C 118.028,80.2877 123.528,80.4544 129,81.5C 131.183,81.4779 132.683,80.4779 133.5,78.5C 135.607,77.5318 137.941,77.1984 140.5,77.5C 140.5,75.8333 140.5,74.1667 140.5,72.5C 138.5,72.5 136.5,72.5 134.5,72.5C 134.5,70.8333 134.5,69.1667 134.5,67.5C 136.167,67.5 137.833,67.5 139.5,67.5 Z"/></g>
<g><path style="opacity:1" fill="#f9a629" d="M 40.5,62.5 C 55.3428,62.1707 70.0095,62.504 84.5,63.5C 72.5595,65.3258 60.5595,66.6592 48.5,67.5C 48.5,69.1667 48.5,70.8333 48.5,72.5C 54.1377,71.7803 59.8044,71.447 65.5,71.5C 65.5,72.8333 65.5,74.1667 65.5,75.5C 67.1667,75.5 68.8333,75.5 70.5,75.5C 70.5,77.1667 70.5,78.8333 70.5,80.5C 72.5,80.5 74.5,80.5 76.5,80.5C 76.5,81.8333 76.5,83.1667 76.5,84.5C 82.1377,83.7803 87.8044,83.447 93.5,83.5C 93.5,81.5 93.5,79.5 93.5,77.5C 94.8333,77.5 96.1667,77.5 97.5,77.5C 97.5,75.8333 97.5,74.1667 97.5,72.5C 97.5,72.1667 97.5,71.8333 97.5,71.5C 99.1667,71.5 100.833,71.5 102.5,71.5C 102.215,69.712 102.548,68.0453 103.5,66.5C 106.421,65.5934 109.421,65.2601 112.5,65.5C 112.5,67.1667 112.5,68.8333 112.5,70.5C 114.5,70.5 116.5,70.5 118.5,70.5C 118.5,71.8333 118.5,73.1667 118.5,74.5C 120.167,74.5 121.833,74.5 123.5,74.5C 123.5,76.1667 123.5,77.8333 123.5,79.5C 126.833,79.1667 130.167,78.8333 133.5,78.5C 132.683,80.4779 131.183,81.4779 129,81.5C 123.528,80.4544 118.028,80.2877 112.5,81C 107.902,83.2701 103.569,85.9368 99.5,89C 94.3975,91.3433 89.0642,92.01 83.5,91C 77.7336,85.7817 71.0669,82.115 63.5,80C 48.6529,78.6735 40.6529,85.5068 39.5,100.5C 38.0103,95.9229 37.3437,91.0896 37.5,86C 38.5694,78.207 39.5694,70.3737 40.5,62.5 Z"/></g>
<g><path style="opacity:1" fill="#dddddd" d="M 92.5,72.5 C 92.5,74.5 92.5,76.5 92.5,78.5C 90.8333,78.5 89.1667,78.5 87.5,78.5C 86.4251,74.062 88.0917,72.062 92.5,72.5 Z"/></g>
<g><path style="opacity:1" fill="#ededed" d="M 97.5,71.5 C 97.5,71.8333 97.5,72.1667 97.5,72.5C 95.8333,72.5 94.1667,72.5 92.5,72.5C 92.5,70.8333 92.5,69.1667 92.5,67.5C 94.1667,67.5 95.8333,67.5 97.5,67.5C 97.5,68.8333 97.5,70.1667 97.5,71.5 Z"/></g>
<g><path style="opacity:1" fill="#0d0814" d="M 168.5,86.5 C 167.395,87.6005 166.062,88.2671 164.5,88.5C 164.141,86.629 163.141,85.129 161.5,84C 166.221,78.2246 168.555,79.058 168.5,86.5 Z"/></g>
<g><path style="opacity:1" fill="#080707" d="M 116.5,83.5 C 120.182,83.3347 123.848,83.5014 127.5,84C 133.559,85.8702 135.059,89.7035 132,95.5C 126.402,104.141 120.068,104.475 113,96.5C 111.115,94.0859 110.448,91.4192 111,88.5C 112.73,86.5981 114.563,84.9314 116.5,83.5 Z"/></g>
<g><path style="opacity:1" fill="#835cee" d="M 5.5,76.5 C 5.29777,78.9892 5.79777,81.3225 7,83.5C 9.40339,81.7382 11.9034,81.4048 14.5,82.5C 14.4452,89.942 16.7785,90.7754 21.5,85C 20.2107,83.1978 18.5441,82.0312 16.5,81.5C 18.3234,80.7727 20.1568,80.4394 22,80.5C 23.5626,83.0443 25.0626,83.0443 26.5,80.5C 28.8013,81.3249 31.1346,81.9916 33.5,82.5C 33.3331,92.4991 34.9998,102.166 38.5,111.5C 37.3482,113.688 35.8482,113.688 34,111.5C 33.6667,112.167 33.3333,112.833 33,113.5C 32.2588,112.359 31.4255,112.359 30.5,113.5C 29.5713,112.311 29.238,110.978 29.5,109.5C 30.1471,108.726 30.4805,107.726 30.5,106.5C 29.8295,103.154 29.1628,99.8206 28.5,96.5C 22.7505,97.1867 17.0839,98.3534 11.5,100C 10.7089,102.75 10.7089,105.583 11.5,108.5C 10.8707,110.997 9.204,112.33 6.5,112.5C 3.12163,100.432 2.78829,88.4319 5.5,76.5 Z"/></g>
<g><path style="opacity:1" fill="#09050f" d="M 16.5,81.5 C 18.5441,82.0312 20.2107,83.1978 21.5,85C 16.7785,90.7754 14.4452,89.942 14.5,82.5C 15.1667,82.1667 15.8333,81.8333 16.5,81.5 Z"/></g>
<g><path style="opacity:1" fill="#815dec" d="M 178.5,83.5 C 179.651,88.6503 179.817,93.9836 179,99.5C 177.894,105.195 176.728,110.861 175.5,116.5C 172.533,118.266 170.533,117.599 169.5,114.5C 166.548,112.59 163.214,111.59 159.5,111.5C 159.5,110.5 159.5,109.5 159.5,108.5C 162.161,107.841 164.494,106.508 166.5,104.5C 168.071,105.309 169.738,105.643 171.5,105.5C 172.052,103.669 172.052,102.003 171.5,100.5C 165.937,98.6925 160.27,97.3591 154.5,96.5C 154.579,97.9305 154.246,99.2638 153.5,100.5C 155.988,101.688 158.322,103.021 160.5,104.5C 157.634,106.578 154.634,108.411 151.5,110C 150.748,110.671 150.414,111.504 150.5,112.5C 148.565,113.15 146.565,113.483 144.5,113.5C 144.5,112.167 144.5,110.833 144.5,109.5C 148.447,101.649 150.114,93.3155 149.5,84.5C 150.509,87.2143 151.509,89.5476 152.5,91.5C 153.192,90.9747 153.692,90.3081 154,89.5C 154.667,92.1667 155.333,92.1667 156,89.5C 156.718,90.4506 157.551,90.6172 158.5,90C 157.346,89.0862 157.513,88.2529 159,87.5C 159.667,88.8333 160.333,88.8333 161,87.5C 161.333,88.1667 161.667,88.8333 162,89.5C 162.671,88.7476 163.504,88.4142 164.5,88.5C 166.062,88.2671 167.395,87.6005 168.5,86.5C 167.323,88.1026 167.489,89.436 169,90.5C 172.118,89.603 175.118,89.603 178,90.5C 178.497,88.1902 178.663,85.8568 178.5,83.5 Z"/></g>
<g><path style="opacity:1" fill="#111111" d="M 136.5,90.5 C 138.911,90.1367 140.411,91.1367 141,93.5C 142.219,98.898 140.719,103.398 136.5,107C 132.635,109.401 128.968,112.068 125.5,115C 119.167,115.667 112.833,115.667 106.5,115C 102.494,111.298 98.4937,107.631 94.5,104C 94.6135,102.72 95.2801,101.887 96.5,101.5C 100.308,103.474 103.308,106.308 105.5,110C 113.165,114.045 119.832,112.711 125.5,106C 135.647,105.559 139.314,100.392 136.5,90.5 Z"/></g>
<g><path style="opacity:1" fill="#0f0a16" d="M 29.5,109.5 C 28.0292,111.216 27.0292,113.216 26.5,115.5C 24.323,115.586 22.323,116.253 20.5,117.5C 18.07,115.618 15.4033,114.285 12.5,113.5C 12.7845,111.585 12.4511,109.919 11.5,108.5C 10.7089,105.583 10.7089,102.75 11.5,100C 17.0839,98.3534 22.7505,97.1867 28.5,96.5C 29.1628,99.8206 29.8295,103.154 30.5,106.5C 30.4805,107.726 30.1471,108.726 29.5,109.5 Z"/></g>
<g><path style="opacity:1" fill="#0b0711" d="M 169.5,114.5 C 168.566,115.568 168.232,116.901 168.5,118.5C 163.112,117.653 157.779,116.487 152.5,115C 151.244,114.583 150.577,113.75 150.5,112.5C 150.414,111.504 150.748,110.671 151.5,110C 154.634,108.411 157.634,106.578 160.5,104.5C 158.322,103.021 155.988,101.688 153.5,100.5C 154.246,99.2638 154.579,97.9305 154.5,96.5C 160.27,97.3591 165.937,98.6925 171.5,100.5C 172.052,102.003 172.052,103.669 171.5,105.5C 169.738,105.643 168.071,105.309 166.5,104.5C 164.494,106.508 162.161,107.841 159.5,108.5C 159.5,109.5 159.5,110.5 159.5,111.5C 163.214,111.59 166.548,112.59 169.5,114.5 Z"/></g>
<g><path style="opacity:1" fill="#7c5be5" d="M 20.5,102.5 C 22.8333,102.5 25.1667,102.5 27.5,102.5C 27.3067,105.308 26.64,107.975 25.5,110.5C 21.4021,112.331 17.7354,111.665 14.5,108.5C 13.7542,107.264 13.4208,105.93 13.5,104.5C 16.0673,104.279 18.4006,103.612 20.5,102.5 Z"/></g>
<g><path style="opacity:1" fill="#0b0813" d="M 53.5,152.5 C 51.4013,154.994 49.068,157.327 46.5,159.5C 44.3102,157.476 41.9768,155.643 39.5,154C 38.1772,153.184 37.5106,152.017 37.5,150.5C 36.8764,148.151 36.543,145.818 36.5,143.5C 37.5,142.167 38.5,140.833 39.5,139.5C 42.2838,138.485 45.2838,137.818 48.5,137.5C 52.6411,139.815 55.8078,142.815 58,146.5C 57.6667,146.833 57.3333,147.167 57,147.5C 53.7825,143.663 49.9492,141.663 45.5,141.5C 39.9536,144.573 38.9536,148.407 42.5,153C 43.5,153.667 44.5,153.667 45.5,153C 47.0067,151.222 47.8401,149.389 48,147.5C 50.3634,148.702 52.1967,150.368 53.5,152.5 Z"/></g>
<g><path style="opacity:1" fill="#7966ec" d="M 11.5,108.5 C 12.4511,109.919 12.7845,111.585 12.5,113.5C 15.4033,114.285 18.07,115.618 20.5,117.5C 22.323,116.253 24.323,115.586 26.5,115.5C 27.0292,113.216 28.0292,111.216 29.5,109.5C 29.238,110.978 29.5713,112.311 30.5,113.5C 31.4255,112.359 32.2588,112.359 33,113.5C 33.3333,112.833 33.6667,112.167 34,111.5C 35.8482,113.688 37.3482,113.688 38.5,111.5C 46.1564,128.655 58.8231,140.489 76.5,147C 109.631,152.944 132.298,140.444 144.5,109.5C 144.5,110.833 144.5,112.167 144.5,113.5C 146.565,113.483 148.565,113.15 150.5,112.5C 150.577,113.75 151.244,114.583 152.5,115C 157.779,116.487 163.112,117.653 168.5,118.5C 168.232,116.901 168.566,115.568 169.5,114.5C 170.533,117.599 172.533,118.266 175.5,116.5C 167.739,140.38 152.739,158.047 130.5,169.5C 129.97,165.971 128.637,165.638 126.5,168.5C 126.036,167.364 125.702,166.364 125.5,165.5C 126.278,164.844 126.944,164.011 127.5,163C 125.628,157.19 123.294,151.69 120.5,146.5C 118.998,147.083 117.665,147.916 116.5,149C 117.554,151.382 118.221,153.882 118.5,156.5C 116.323,156.586 114.323,157.253 112.5,158.5C 111.27,155.951 109.77,153.617 108,151.5C 106.05,151.707 104.884,152.707 104.5,154.5C 102.695,153.763 101.029,152.763 99.5,151.5C 97.9745,151.994 96.6412,152.661 95.5,153.5C 92.5,153.5 89.5,153.5 86.5,153.5C 86.1205,152.867 85.7871,152.2 85.5,151.5C 83.8045,152.174 82.1379,152.841 80.5,153.5C 74.7475,151.793 69.0808,149.793 63.5,147.5C 62.3037,149.145 61.3037,150.811 60.5,152.5C 58.1667,153.833 55.8333,153.833 53.5,152.5C 52.1967,150.368 50.3634,148.702 48,147.5C 47.8401,149.389 47.0067,151.222 45.5,153C 44.5,153.667 43.5,153.667 42.5,153C 38.9536,148.407 39.9536,144.573 45.5,141.5C 49.9492,141.663 53.7825,143.663 57,147.5C 57.3333,147.167 57.6667,146.833 58,146.5C 55.8078,142.815 52.6411,139.815 48.5,137.5C 45.2838,137.818 42.2838,138.485 39.5,139.5C 38.5,140.833 37.5,142.167 36.5,143.5C 36.543,145.818 36.8764,148.151 37.5,150.5C 36.8485,151.091 36.1818,151.757 35.5,152.5C 34.914,152.291 34.414,151.957 34,151.5C 33.1841,152.823 32.0174,153.489 30.5,153.5C 18.6593,142.162 10.6593,128.495 6.5,112.5C 9.204,112.33 10.8707,110.997 11.5,108.5 Z"/></g>
<g><path style="opacity:1" fill="#0b0712" d="M 132.5,137.5 C 135.794,138.208 138.96,138.208 142,137.5C 144.646,140.98 147.479,144.314 150.5,147.5C 149.167,148.5 147.833,149.5 146.5,150.5C 145.335,149.509 144.168,148.509 143,147.5C 140.867,148.632 139.034,150.132 137.5,152C 138.167,153.333 138.833,154.667 139.5,156C 138.465,157.274 137.298,158.44 136,159.5C 133.308,156.308 130.808,152.975 128.5,149.5C 128.256,146.547 128.756,143.547 130,140.5C 131.045,139.627 131.878,138.627 132.5,137.5 Z"/></g>
<g><path style="opacity:1" fill="#0a0712" d="M 148.5,117.5 C 150.863,119.083 150.863,120.916 148.5,123C 151.736,125.868 155.236,128.368 159,130.5C 160.353,129.315 161.52,127.981 162.5,126.5C 163.308,126.808 163.975,127.308 164.5,128C 161.662,132.33 158.662,136.496 155.5,140.5C 154.334,138.635 154.667,136.968 156.5,135.5C 152.996,132.104 148.996,129.938 144.5,129C 143.603,131.127 142.269,131.627 140.5,130.5C 143.44,126.278 146.106,121.945 148.5,117.5 Z"/></g>
<g><path style="opacity:1" fill="#090610" d="M 28.5,118.5 C 30.46,119.138 32.2933,119.138 34,118.5C 36.549,121.765 38.7157,125.265 40.5,129C 39.4267,130.416 39.4267,131.75 40.5,133C 36.8333,135.5 33.1667,138 29.5,140.5C 28.8333,139.833 28.1667,139.167 27.5,138.5C 26.5745,139.641 25.7412,139.641 25,138.5C 23.204,135.073 21.0373,131.906 18.5,129C 20.3937,127.921 20.727,126.587 19.5,125C 22.921,123.301 25.921,121.135 28.5,118.5 Z"/></g>
<g><path style="opacity:1" fill="#7962e8" d="M 31.5,122.5 C 32.675,122.281 33.675,122.614 34.5,123.5C 35.2485,125.332 36.2485,126.999 37.5,128.5C 34.1485,131.011 30.6485,133.345 27,135.5C 24.9485,133.944 23.4485,131.944 22.5,129.5C 25.75,127.388 28.75,125.055 31.5,122.5 Z"/></g>
<g><path style="opacity:1" fill="#171616" d="M 132.5,114.5 C 133.56,119.369 131.56,122.869 126.5,125C 120.163,127.386 114.163,126.886 108.5,123.5C 108.47,122.503 108.97,121.836 110,121.5C 112.458,122.08 114.958,122.414 117.5,122.5C 124.43,123.198 129.43,120.531 132.5,114.5 Z"/></g>
<g><path style="opacity:1" fill="#f0e5d8" d="M 139.5,110.5 C 133.938,127.893 122.271,139.059 104.5,144C 77.9328,148.564 58.2661,139.064 45.5,115.5C 50.9943,119.478 56.661,123.311 62.5,127C 73.78,133.592 85.78,135.259 98.5,132C 102.613,130.052 105.946,127.219 108.5,123.5C 114.163,126.886 120.163,127.386 126.5,125C 131.56,122.869 133.56,119.369 132.5,114.5C 134.123,112.105 136.456,110.772 139.5,110.5 Z"/></g>
<g><path style="opacity:1" fill="#7462e2" d="M 133.5,140.5 C 135.068,142.931 136.568,142.931 138,140.5C 139.046,142.09 140.213,143.59 141.5,145C 134.204,151.186 131.538,149.686 133.5,140.5 Z"/></g>
<g><path style="opacity:1" fill="#0c0913" d="M 125.5,165.5 C 124.325,165.719 123.325,165.386 122.5,164.5C 121.877,162.289 120.877,160.289 119.5,158.5C 117.075,159.308 114.742,160.308 112.5,161.5C 115.969,166.312 114.969,169.312 109.5,170.5C 108.402,164.975 106.735,159.642 104.5,154.5C 104.884,152.707 106.05,151.707 108,151.5C 109.77,153.617 111.27,155.951 112.5,158.5C 114.323,157.253 116.323,156.586 118.5,156.5C 118.221,153.882 117.554,151.382 116.5,149C 117.665,147.916 118.998,147.083 120.5,146.5C 123.294,151.69 125.628,157.19 127.5,163C 126.944,164.011 126.278,164.844 125.5,165.5 Z"/></g>
<g><path style="opacity:1" fill="#0a0711" d="M 80.5,153.5 C 80.0377,154.88 79.0377,155.547 77.5,155.5C 74.0926,154.364 70.7593,153.031 67.5,151.5C 65.9137,153.173 65.2471,155.173 65.5,157.5C 68.5739,157.873 71.5739,158.539 74.5,159.5C 74.719,160.675 74.3857,161.675 73.5,162.5C 70.2732,161.091 66.9399,160.091 63.5,159.5C 62.9478,161.331 62.9478,162.997 63.5,164.5C 67.3908,165.95 71.0574,167.617 74.5,169.5C 73.8333,169.833 73.1667,170.167 72.5,170.5C 67.8388,168.835 63.1722,167.168 58.5,165.5C 58.1667,164.667 57.8333,163.833 57.5,163C 58.806,159.583 59.806,156.083 60.5,152.5C 61.3037,150.811 62.3037,149.145 63.5,147.5C 69.0808,149.793 74.7475,151.793 80.5,153.5 Z"/></g>
<g><path style="opacity:1" fill="#756beb" d="M 37.5,150.5 C 37.5106,152.017 38.1772,153.184 39.5,154C 41.9768,155.643 44.3102,157.476 46.5,159.5C 49.068,157.327 51.4013,154.994 53.5,152.5C 55.8333,153.833 58.1667,153.833 60.5,152.5C 59.806,156.083 58.806,159.583 57.5,163C 57.8333,163.833 58.1667,164.667 58.5,165.5C 63.1722,167.168 67.8388,168.835 72.5,170.5C 73.1667,170.167 73.8333,169.833 74.5,169.5C 71.0574,167.617 67.3908,165.95 63.5,164.5C 62.9478,162.997 62.9478,161.331 63.5,159.5C 66.9399,160.091 70.2732,161.091 73.5,162.5C 74.3857,161.675 74.719,160.675 74.5,159.5C 71.5739,158.539 68.5739,157.873 65.5,157.5C 65.2471,155.173 65.9137,153.173 67.5,151.5C 70.7593,153.031 74.0926,154.364 77.5,155.5C 79.0377,155.547 80.0377,154.88 80.5,153.5C 82.1379,152.841 83.8045,152.174 85.5,151.5C 85.7871,152.2 86.1205,152.867 86.5,153.5C 85.8333,155.5 85.1667,157.5 84.5,159.5C 83.5,159.5 82.5,159.5 81.5,159.5C 81.5,162.167 81.5,164.833 81.5,167.5C 84.5,167.833 86.1667,169.5 86.5,172.5C 90.1667,172.5 93.8333,172.5 97.5,172.5C 97.5,171.5 97.5,170.5 97.5,169.5C 100.988,169.101 101.154,168.434 98,167.5C 96.2028,168.266 94.3695,168.932 92.5,169.5C 90.4649,168.796 88.4649,168.129 86.5,167.5C 86.5,164.5 86.5,161.5 86.5,158.5C 89.0248,157.36 91.6915,156.693 94.5,156.5C 94.5,157.5 94.5,158.5 94.5,159.5C 96.5,159.5 98.5,159.5 100.5,159.5C 100.5,158.5 100.5,157.5 100.5,156.5C 99.5,156.5 98.5,156.5 97.5,156.5C 97.7148,154.821 97.0481,153.821 95.5,153.5C 96.6412,152.661 97.9745,151.994 99.5,151.5C 101.029,152.763 102.695,153.763 104.5,154.5C 106.735,159.642 108.402,164.975 109.5,170.5C 114.969,169.312 115.969,166.312 112.5,161.5C 114.742,160.308 117.075,159.308 119.5,158.5C 120.877,160.289 121.877,162.289 122.5,164.5C 123.325,165.386 124.325,165.719 125.5,165.5C 125.702,166.364 126.036,167.364 126.5,168.5C 128.637,165.638 129.97,165.971 130.5,169.5C 96.7303,184.514 65.0636,181.014 35.5,159C 33.6266,157.296 31.9599,155.463 30.5,153.5C 32.0174,153.489 33.1841,152.823 34,151.5C 34.414,151.957 34.914,152.291 35.5,152.5C 36.1818,151.757 36.8485,151.091 37.5,150.5 Z"/></g>
<g><path style="opacity:1" fill="#0e0b16" d="M 86.5,153.5 C 89.5,153.5 92.5,153.5 95.5,153.5C 97.0481,153.821 97.7148,154.821 97.5,156.5C 98.5,156.5 99.5,156.5 100.5,156.5C 100.5,157.5 100.5,158.5 100.5,159.5C 98.5,159.5 96.5,159.5 94.5,159.5C 94.5,158.5 94.5,157.5 94.5,156.5C 91.6915,156.693 89.0248,157.36 86.5,158.5C 86.5,161.5 86.5,164.5 86.5,167.5C 88.4649,168.129 90.4649,168.796 92.5,169.5C 94.3695,168.932 96.2028,168.266 98,167.5C 101.154,168.434 100.988,169.101 97.5,169.5C 97.5,170.5 97.5,171.5 97.5,172.5C 93.8333,172.5 90.1667,172.5 86.5,172.5C 86.1667,169.5 84.5,167.833 81.5,167.5C 81.5,164.833 81.5,162.167 81.5,159.5C 82.5,159.5 83.5,159.5 84.5,159.5C 85.1667,157.5 85.8333,155.5 86.5,153.5 Z"/></g>
</svg>
